<?xml version="1.0" encoding="UTF-8" standalone="no"?>
<svg
   xmlns:dc="http://purl.org/dc/elements/1.1/"
   xmlns:cc="http://creativecommons.org/ns#"
   xmlns:rdf="http://www.w3.org/1999/02/22-rdf-syntax-ns#"
   xmlns:svg="http://www.w3.org/2000/svg"
   xmlns="http://www.w3.org/2000/svg"
   xmlns:sodipodi="http://sodipodi.sourceforge.net/DTD/sodipodi-0.dtd"
   xmlns:inkscape="http://www.inkscape.org/namespaces/inkscape"
   version="1.1"
   width="174.42131"
   height="200.68141"
   overflow="visible"
   viewBox="0 0 174.42131 200.68141"
   enable-background="new 0.0 0.0 1003.0 557.0"
   id="svg6449"
   inkscape:version="0.48.0 r9654"
   sodipodi:docname="Charmander_-_Dream_World.svg"
   style="overflow:visible">
  <metadata
     id="metadata6623">
    <rdf:RDF>
      <cc:Work
         rdf:about="">
        <dc:format>image/svg+xml</dc:format>
        <dc:type
           rdf:resource="http://purl.org/dc/dcmitype/StillImage" />
        <dc:title />
      </cc:Work>
    </rdf:RDF>
  </metadata>
  <sodipodi:namedview
     pagecolor="#ffffff"
     bordercolor="#666666"
     borderopacity="1"
     objecttolerance="10"
     gridtolerance="10"
     guidetolerance="10"
     inkscape:pageopacity="0"
     inkscape:pageshadow="2"
     inkscape:window-width="1366"
     inkscape:window-height="712"
     id="namedview6621"
     showgrid="false"
     fit-margin-top="0"
     fit-margin-left="0"
     fit-margin-right="0"
     fit-margin-bottom="0"
     inkscape:zoom="0.95712861"
     inkscape:cx="229.25927"
     inkscape:cy="62.978919"
     inkscape:window-x="-4"
     inkscape:window-y="-4"
     inkscape:window-maximized="1"
     inkscape:current-layer="svg6449" />
  <defs
     id="defs6451" />
  <g
     id="g6455"
     transform="translate(0.02666669,0.05000005)">
    <g
       id="g6457">
      <g
         id="g6459">
        <path
           d="m 159.45,131.2 c -0.6,10.26667 -4.11666,18.88334 -10.55,25.85 -5.66668,6.13333 -12.98334,10.45 -21.95,12.95 -8.3,2.33333 -16.46666,2.75 -24.5,1.25 -8.1,-1.5 -14.133334,-4.6 -18.1,-9.3 0.7,-1.63333 1.45,-3.98334 2.25,-7.05 1.16666,-4.46667 1.65,-7.98333 1.45,-10.55 3.900005,4.23333 8.73334,7.48333 14.5,9.75 6.1,2.4 12.25,3.28333 18.45,2.65 15.16667,-1.53334 26.6,-11.03334 34.3,-28.5 l 0.9,1.5 c 0.86667,0.96666 1.95,1.45 3.25,1.45 z"
           id="path6461"
           inkscape:connector-curvature="0"
           style="fill:#ef8200;stroke-linecap:round;stroke-linejoin:round" />
        <path
           d="m 82.9,166.95 1.45,-4.85 c 8.833334,7.93334 19.61667,11.28333 32.35,10.05 11.63333,-1.13334 22.28332,-5.66666 31.95,-13.6 -9.83333,11.43334 -22.33333,17.31667 -37.5,17.65 -6.03333,0.1 -11.716666,-0.75 -17.05,-2.55 -5,-1.73333 -8.73333,-3.96667 -11.2,-6.7 z"
           id="path6463"
           inkscape:connector-curvature="0"
           style="fill:#ddd583;stroke-linecap:round;stroke-linejoin:round" />
        <path
           d="m 85.85,157.2 c 6.86667,7.3 16.60001,10.86667 29.2,10.7 11.9,-0.16668 22.9,-3.48334 33,-9.95 -8.33333,8.33333 -18.8,13.03332 -31.4,14.1 -13,1.1 -23.76667,-2.21667 -32.3,-9.95 l 1.5,-4.9 z"
           id="path6465"
           inkscape:connector-curvature="0"
           style="fill:#cf7100;stroke-linecap:round;stroke-linejoin:round" />
        <path
           d="m 70.65,43.25 c -0.4,2.133335 -1.53333,6.166668 -3.4,12.1 -1.700005,5.433333 -2.583336,8.616667 -2.65,9.55 -0.1,1.3 0.233336,4.416666 1,9.35 0.6,4.03333 1.18333,7.48333 1.75,10.35 2.86667,15.03333 6.083334,25.41666 9.65,31.15 4.23333,6.76667 7.1,12.01667 8.6,15.75 2.76667,6.90001 3.466666,13.18335 2.1,18.85 l -3.85,13.45 c -1,3.26667 -1.533334,5.96666 -1.6,8.1 l 2.9,6.2 c 1.73333,4.4 2.18333,7.31667 1.35,8.75 -1.166664,1.93334 -2.58333,3.51667 -4.25,4.75 -2.03333,1.5 -4.28333,2.36667 -6.75,2.6 -2.9,0.26667 -5.96667,-0.19998 -9.2,-1.4 -3.5,-1.26667 -5.266667,-2.78334 -5.3,-4.55 l 0.15,-7.9 c -0.03334,-3.8 -0.433337,-6.55 -1.2,-8.25 l -3.15,-3.3 c -2.2,-2.6 -3.533334,-4.81668 -4,-6.65 l -7.55,-1.35 -2.35,1.75 c -1.633334,1.36667 -2.533335,2.56667 -2.7,3.6 l 1.65,3.3 c 1.033335,2.4 1.333334,4.00001 0.9,4.8 -0.600002,1.09999 -3.300003,2.51666 -8.1,4.25 -5.2,1.86667 -9.633334,2.8 -13.3,2.8 -4,0 -7.733333,-1.16667 -11.2,-3.5 -3.5000004,-2.33333 -4.1000003,-4.13333 -1.8,-5.4 l 6.25,-3.5 c -2.7,-1.76667 -4.583334,-4.28333 -5.65,-7.55 -2.066667,-6.5 1.05,-13.43333 9.35,-20.8 -1.666667,-2.73333 -2.899999,-7.35 -3.7,-13.85 -0.966667,-7.46667 -0.816667,-14.41667 0.45,-20.85 l -3.1,3.3 c -1.566667,1.53333 -2.75,2.18334 -3.55,1.95 -0.5666665,-0.16667 -1.0166663,-1.03333 -1.35,-2.6 l -0.3,-2.35 c -3.5,1.16667 -5.3833334,1.3 -5.65,0.4 -0.30000005,-1.03333 -0.31666676,-2.03333 -0.05,-3 C 1.5166667,101.88334 2.8000002,99.933334 4.9,97.7 6.2,94.76667 8.016666,91.48334 10.35,87.85 15.016667,80.65 19.966667,75.36667 25.2,72 22.966667,71.566666 21.183334,70.78333 19.85,69.65 17.483334,67.683334 14.55,64.2 11.05,59.2 6.1833334,52.333336 3.8,46.65 3.9,42.15 c 0.033333,-2.266665 1.0166665,-4.799998 2.95,-7.6 1.733333,-2.600001 3.1,-3.966668 4.1,-4.1 L 16.3,16.9 C 16.066666,16.466667 15.916666,15.950001 15.85,15.35 15.683333,14.183333 15.966667,13.2 16.7,12.4 19.766666,9.066667 22.766666,6.6 25.7,5 32.5,1.2666667 40.433334,0.0666666 49.5,1.4 c 6.566666,0.9333333 12.149998,5.6166664 16.75,14.05 4.799995,8.833333 6.26666,18.1 4.4,27.8 z"
           id="path6467"
           inkscape:connector-curvature="0"
           style="fill:#ef8200;stroke-linecap:round;stroke-linejoin:round" />
        <path
           d="m 4.05,103.65 c 2.166667,-1.6 3.883334,-2.46667 5.15,-2.6 1,-0.1 1.399999,0.2 1.2,0.9 -0.233333,0.66666 -0.983333,1.25 -2.25,1.75 l -3,0.35 -1.1,-0.4 z"
           id="path6469"
           inkscape:connector-curvature="0"
           style="fill:#cf7100;stroke-linecap:round;stroke-linejoin:round" />
        <path
           d="m 8.25,111.4 c 2.533334,-4 5.016667,-7.36667 7.45,-10.1 l -0.35,4.15 c -3.933334,4.06667 -6.300001,6.05001 -7.1,5.95 z"
           id="path6471"
           inkscape:connector-curvature="0"
           style="fill:#cf7100;stroke-linecap:round;stroke-linejoin:round" />
        <path
           d="m 32.4,71 c 4.733335,-0.833336 8.46667,-1.9 11.2,-3.2 l 2.85,-0.05 c 0.16667,0.76667 -0.33333,1.91667 -1.5,3.45 -3.033332,4.099995 -6.3,6.13333 -9.8,6.1 -2.666666,-0.03333 -4.700001,-0.53333 -6.1,-1.5 C 27.883333,75 26.9,73.683334 26.1,71.85 L 32.4,71 z"
           id="path6473"
           inkscape:connector-curvature="0"
           style="fill:#cf7100;stroke-linecap:round;stroke-linejoin:round" />
        <path
           d="m 53.7,164.45 c -3.83333,-6.4 -4.733333,-12.65 -2.7,-18.75 -0.366665,3.76667 1.133335,7.06668 4.5,9.9 3.100002,2.56667 7.033337,4.2 11.8,4.9 4.8,0.73334 9.03333,0.25 12.7,-1.45 3.833336,-1.76667 6.23334,-4.58334 7.2,-8.45 l -1.05,4.75 -1.9,7.55 c -0.46667,1.33332 -0.9,3.05 -1.3,5.15 -0.43333,2.13333 -0.63333,3.51667 -0.6,4.15 0.06666,0.9 1.216666,3.96667 3.45,9.2 -2,-3.53333 -6.366666,-5.15 -13.1,-4.85 -6.8,0.3 -10.75,2.43334 -11.85,6.4 0,-6.13333 -0.25,-9.71666 -0.75,-10.75 -2.333334,-1.96666 -4.466665,-4.54999 -6.4,-7.75 z"
           id="path6475"
           inkscape:connector-curvature="0"
           style="fill:#cf7100;stroke-linecap:round;stroke-linejoin:round" />
        <path
           d="m 15,162.05 c 2.466667,0.46666 4.716667,0.05 6.75,-1.25 2.066668,-1.3 3.216667,-3.11667 3.45,-5.45 0.233332,-2.26667 -0.466668,-4.61668 -2.1,-7.05 3.233334,4.1 7.800002,7.35 13.7,9.75 3.266666,1.3 6.2,2.13333 8.8,2.5 -1.266668,0.5 -2.55,1.60001 -3.85,3.3 l -1.6,2.35 c 0.8,1.06666 1.416666,2.36667 1.85,3.9 0.399998,1.43334 0.566666,2.71667 0.5,3.85 -0.06667,1 -1.333332,2.01666 -3.8,3.05 -1.533332,0.66667 -4.716666,1.75 -9.55,3.25 l -6.4,1.05 -3.85,-0.15 c 3.433332,-0.9 4.666666,-2.46667 3.7,-4.7 -0.866666,-2.06667 -3.45,-4.41667 -7.75,-7.05 -2.233333,-1.36666 -3.983333,-3.73333 -5.25,-7.1 l -1.25,-4.65 c 1.733333,2.43333 3.949999,3.9 6.65,4.4 z"
           id="path6477"
           inkscape:connector-curvature="0"
           style="fill:#cf7100;stroke-linecap:round;stroke-linejoin:round" />
        <path
           d="m 36.9,79.2 c 2.833334,3.7 5.48333,8.233334 7.95,13.6 6.766665,14.53334 9.683333,29.35 8.75,44.45 l -2.65,8 c -1.33333,6.26666 -0.88333,11.68333 1.35,16.25 -5.333333,-0.2 -10.9,-1.59999 -16.7,-4.2 -11.566667,-5.23333 -18.416668,-13.88333 -20.55,-25.95 -1.7,-9.53333 -1.266666,-20.3 1.3,-32.3 1.466666,-6.7 3.399998,-13.08333 5.8,-19.15 0.8,-0.966666 1.783334,-1.95 2.95,-2.95 2.333334,-1.93333 4.4,-2.866664 6.2,-2.8 1.2,0.03333 3.06667,1.71667 5.6,5.05 z"
           id="path6479"
           inkscape:connector-curvature="0"
           style="fill:#fff697;stroke-linecap:round;stroke-linejoin:round" />
        <path
           d="M 35.85,77.25 31.4,77 c -1.2,-0.333336 -2.3,-1 -3.3,-2 l 1.25,-0.5 2.55,0.05 c 1.2,0.46667 2.516664,1.36667 3.95,2.7 z"
           id="path6481"
           inkscape:connector-curvature="0"
           style="fill:#ddd583;stroke-linecap:round;stroke-linejoin:round" />
        <path
           d="m 33.1,143.8 c 7.1,1.46666 13.233336,0.99999 18.4,-1.4 -0.7,0.5 -1.15,2.83332 -1.35,7 -0.233332,5.06666 0.483335,9.13333 2.15,12.2 -5.266667,0.33333 -11.066666,-1.13334 -17.4,-4.4 -9.866667,-5.06667 -16.416668,-13.43334 -19.65,-25.1 3.766666,6.13334 9.716667,10.03333 17.85,11.7 z"
           id="path6483"
           inkscape:connector-curvature="0"
           style="fill:#ddd583;stroke-linecap:round;stroke-linejoin:round" />
        <path
           d="M 13.5,56 C 11.733334,53.066666 10.333334,49.866665 9.3,46.4 l 2.35,2.05 c 1.933333,1.5 3.85,2.633332 5.75,3.4 l 2.45,0.6 C 17.383333,53.183334 15.266666,54.36667 13.5,56 z"
           id="path6485"
           inkscape:connector-curvature="0"
           style="fill:#922f00;stroke-linecap:round;stroke-linejoin:round" />
        <path
           d="m 13.5,56 c 1.766666,-1.633335 3.883333,-2.81667 6.35,-3.55 L 35.8,54 c 6.866664,0.433334 11.18333,0.55 12.95,0.35 -1.2,2.5 -4.7,5.133334 -10.5,7.9 -6.400002,3.1 -11.850002,4.183334 -16.35,3.25 -0.7,-0.166664 -1.8,-1.049995 -3.3,-2.65 -1.833334,-1.9 -3.533333,-4.183332 -5.1,-6.85 z"
           id="path6487"
           inkscape:connector-curvature="0"
           style="fill:#ed8599;stroke-linecap:round;stroke-linejoin:round" />
        <path
           d="M 27.45,56.2 C 21.716667,54.966667 17.166668,54.933334 13.8,56.1 13.566667,55.733334 14.516666,55 16.65,53.9 l 3.25,-1.5 18.5,1.55 10.35,0.4 c -1.233334,1.733332 -3.11667,3.416666 -5.65,5.05 -1.233335,0.833334 -2.366666,1.48333 -3.4,1.95 -2.533332,-2.233335 -6.616664,-3.950002 -12.25,-5.15 z"
           id="path6489"
           inkscape:connector-curvature="0"
           style="fill:#ce7486;stroke-linecap:round;stroke-linejoin:round" />
        <path
           d="m 44.9,34.7 c 1.133333,-5.066667 2.866666,-8.666667 5.2,-10.8 -1.633333,3.5 -2.683332,7.1 -3.15,10.8 -0.533332,4.033334 -0.3,7.766667 0.7,11.2 -1.866667,-0.1 -2.883334,-0.333334 -3.05,-0.7 -0.866666,-2.266666 -0.766664,-5.766666 0.3,-10.5 z"
           id="path6491"
           inkscape:connector-curvature="0"
           style="fill:#ffffff;stroke-linecap:round;stroke-linejoin:round" />
        <path
           d="m 50.1,23.9 c 1.33333,-1.266667 2.75,-1.833332 4.25,-1.7 3.033335,0.266667 4.6,3.766667 4.7,10.5 0.1,5.533334 -0.333333,9.45 -1.3,11.75 -0.266666,0.633336 -1.566666,1.083337 -3.9,1.35 -2,0.2 -4.066667,0.233333 -6.2,0.1 -1,-3.433333 -1.233332,-7.166666 -0.7,-11.2 0.466668,-3.7 1.516667,-7.3 3.15,-10.8 z"
           id="path6493"
           inkscape:connector-curvature="0"
           style="fill:#0d131a;stroke-linecap:round;stroke-linejoin:round" />
        <path
           d="m 11.05,30.35 c 0.633333,-2.733333 1.433334,-5.4 2.4,-8 1.933333,-5.233333 3.75,-7.5 5.45,-6.8 1.566667,0.666667 1.483333,4.466666 -0.25,11.4 -1.766667,6.93333 -3.333333,10.18333 -4.7,9.75 -0.966666,-0.33333 -1.733333,-1.483333 -2.3,-3.45 l -0.6,-2.9 z"
           id="path6495"
           inkscape:connector-curvature="0"
           style="fill:#0d131a;stroke-linecap:round;stroke-linejoin:round" />
        <path
           d="m 8.8,49.7 c -0.5,-0.166667 -1.0166667,-1.833335 -1.55,-5 0.366667,0.833333 1.8,1.983334 4.3,3.45 -1.3,1.200002 -2.216667,1.71667 -2.75,1.55 z"
           id="path6497"
           inkscape:connector-curvature="0"
           style="fill:#ffffff;stroke-linecap:round;stroke-linejoin:round" />
        <path
           d="m 13.7,56.3 1.2,-0.3 1.4,0.15 c 0.2,0.333334 0.01667,1.333334 -0.55,3 L 13.7,56.3 z"
           id="path6499"
           inkscape:connector-curvature="0"
           style="fill:#ffffff;stroke-linecap:round;stroke-linejoin:round" />
        <path
           d="m 31.1,64.95 0.35,-1.6 c 0.3,-1.066667 0.633332,-1.633333 1,-1.7 0.6,-0.06667 1.283334,0.566663 2.05,1.9 l -3.4,1.4 z"
           id="path6501"
           inkscape:connector-curvature="0"
           style="fill:#ffffff;stroke-linecap:round;stroke-linejoin:round" />
        <path
           d="m 34.6,57.3 c -0.733335,0 -1.516668,-1.233334 -2.35,-3.7 l 6.1,0.45 c -1.8,2.166667 -3.05,3.25 -3.75,3.25 z"
           id="path6503"
           inkscape:connector-curvature="0"
           style="fill:#ffffff;stroke-linecap:round;stroke-linejoin:round" />
        <path
           d="m 16.95,176.65 0.75,1.95 c 0.4,-0.56666 1.116668,-1.14999 2.15,-1.75 l 1.4,-0.75 c 1.1,0.2 1.983334,1.03333 2.65,2.5 l 0.65,2.2 c -1.066666,1 -3.05,1.73334 -5.95,2.2 l -4.5,0.15 c -0.199999,-0.2 -0.01667,-0.61667 0.55,-1.25 l 0.85,-0.95 -5.3,0.75 -2.95,-0.3 C 7.0499997,181.2 7.3,180.71666 8,179.95 l 1.1,-1.05 -3.95,0.35 c -2.7000002,0.1 -4.1166669,-0.15001 -4.25,-0.75 -0.1666667,-0.56667 0.9499999,-1.75 3.35,-3.55 2.4666667,-1.83333 4.083334,-2.48333 4.85,-1.95 0.833333,0.53334 1.483333,1.75 1.95,3.65 l 1.1,-1.1 c 0.866666,-0.73333 1.716667,-1.06666 2.55,-1 0.833333,0.0667 1.583333,0.76667 2.25,2.1 z"
           id="path6505"
           inkscape:connector-curvature="0"
           style="fill:#ffffff;stroke-linecap:round;stroke-linejoin:round" />
        <path
           d="m 147.85,85.45 0.55,2.1 c 0.1,1 -0.0167,1.883334 -0.35,2.65 -0.23333,0.599995 -0.26667,1.26666 -0.1,2 0.16667,0.8 0.53334,1.53334 1.1,2.2 l 0.4,-1.65 3.25,3.25 -0.05,2.75 0.95,1.7 c 0.36666,0.63334 0.58332,1.71667 0.65,3.25 l 2.75,1.7 -1.9,3.2 c -0.36666,0.6 -0.56666,1.56666 -0.6,2.9 -0.0333,0.66666 -0.0167,1.26666 0.05,1.8 l 4.45,-2.7 0.1,1 0,1.55 c -0.36666,2 -0.3,3.28333 0.2,3.85 1.13333,1.33334 1.81667,2.4 2.05,3.2 0.30001,1.03333 0.11667,2.23333 -0.55,3.6 -0.7,1.43333 -1.06666,2.93333 -1.1,4.5 0,1.36667 0.21667,2.26667 0.65,2.7 l -2.25,-0.15 c -0.86666,-0.4 -1.75,-1.21667 -2.65,-2.45 -0.8,-1.16667 -2.23334,-2.01667 -4.3,-2.55 l -3.9,-0.7 c -0.83333,-0.16666 -1.75,-0.96667 -2.75,-2.4 -1.09999,-1.56667 -1.53333,-3.01666 -1.3,-4.35 0.16667,-1.03333 0.68333,-2.41666 1.55,-4.15 0.73334,-1.56667 1.1,-2.56667 1.1,-3 -0.0333,-0.43333 -0.4,-1.3 -1.1,-2.6 -0.7,-1.23333 -1.05,-2.1 -1.05,-2.6 0,-0.46666 0.35,-1.55 1.05,-3.25 0.7,-1.63334 1.01666,-2.63334 0.95,-3 l -0.65,-1.9 c -0.36667,-0.93333 -0.55,-1.66667 -0.55,-2.2 0,-0.533336 0.26666,-1.266666 0.8,-2.2 l 0.85,-1.75 c 0.0667,-0.9 -0.0833,-2.083336 -0.45,-3.55 -0.53334,-2.266666 0.05,-4.21666 1.75,-5.85 l 0.05,1.2 c 0.0333,0.900005 0.15001,1.533336 0.35,1.9 z"
           id="path6507"
           inkscape:connector-curvature="0"
           style="fill:#efe908;stroke-linecap:round;stroke-linejoin:round" />
        <path
           d="m 161.05,85.4 2.35,1.9 c 1,0.766666 1.53333,1.749995 1.6,2.95 0.1,2.03333 -0.0833,4.28333 -0.55,6.75 l 1.7,-1.45 c 1.23333,-0.93333 2,-1.3 2.3,-1.1 0.5,0.366666 0.28334,3.383336 -0.65,9.05 l 0.9,-0.7 c 0.63333,-0.43333 1.01666,-0.55 1.15,-0.35 0.2,0.3 0.0833,2.88334 -0.35,7.75 l 4.05,-6.65 -0.05,2 c -0.0333,1.43333 -0.0167,2.3 0.05,2.6 l 0.1,2.15 -0.45,2.65 c -0.76667,2.13334 -1.03333,3.48333 -0.8,4.05 0.13334,0.36667 0.10002,0.86667 -0.1,1.5 -0.23333,0.73333 -0.6,1.31667 -1.1,1.75 l -2.25,1.9 c -0.96666,0.9 -1.51667,1.63333 -1.65,2.2 l -0.8,1.65 -2,1.6 -4.2,3.35 c -0.4,-0.46666 -0.6,-1.36666 -0.6,-2.7 0.0333,-1.56667 0.4,-3.04999 1.1,-4.45 0.66667,-1.36667 0.85001,-2.56667 0.55,-3.6 -0.23333,-0.8 -0.91667,-1.86666 -2.05,-3.2 -0.5,-0.56667 -0.56666,-1.85 -0.2,-3.85 l 0,-1.55 -0.1,-1 -4.45,2.7 c -0.0667,-0.53333 -0.0833,-1.13333 -0.05,-1.8 0.0333,-1.33334 0.23334,-2.3 0.6,-2.9 l 1.9,-3.2 -2.75,-1.7 c -0.0667,-1.53334 -0.28333,-2.61667 -0.65,-3.25 l -0.95,-1.7 0.05,-2.75 -3.2,-3.2 c 1.33333,-2.099995 2.03333,-3.48333 2.1,-4.15 l -0.15,-2.95 c -0.0667,-1.6 0.23333,-2.883334 0.9,-3.85 0.63334,-0.933336 1.83333,-2.300005 3.6,-4.1 l 2.75,-2.85 c 0.33333,-0.5 0.68333,-1.53333 1.05,-3.1 0.40001,-1.76667 0.55,-3.15 0.45,-4.15 l 1.25,2.75 c 0.83333,2.13333 1.14999,3.96667 0.95,5.5 l -1.25,5.55 c -0.5,2.03333 -0.53333,3.349995 -0.1,3.95 z"
           id="path6509"
           inkscape:connector-curvature="0"
           style="fill:#e50020;stroke-linecap:round;stroke-linejoin:round" />
        <path
           d="m 6.25,176.55 c 1.4666667,-0.5 2.883333,-0.95 4.25,-1.35 l 0.45,1.6 -2.1,2.1 -4.4,0.25 -3.2,-0.25 c 0.4333334,-0.53333 2.1000001,-1.31666 5,-2.35 z"
           id="path6511"
           inkscape:connector-curvature="0"
           style="fill:#dbdcdc;stroke-linecap:round;stroke-linejoin:round" />
        <path
           d="m 7.7,181.9 c 3.7,-2.66668 6.766666,-4.31667 9.2,-4.95 l 0.45,1.65 -1.8,2.4 -7.85,0.9 z"
           id="path6513"
           inkscape:connector-curvature="0"
           style="fill:#dbdcdc;stroke-linecap:round;stroke-linejoin:round" />
        <path
           d="m 14.45,183.55 c 1.066666,-0.73333 2.25,-1.5 3.55,-2.3 2.566668,-1.59999 4.383335,-2.54999 5.45,-2.85 l 0.6,1.1 c 0.333333,0.83333 0.333333,1.45 0,1.85 -0.533334,0.7 -2.15,1.25 -4.85,1.65 l -4.75,0.55 z"
           id="path6515"
           inkscape:connector-curvature="0"
           style="fill:#dbdcdc;stroke-linecap:round;stroke-linejoin:round" />
        <path
           d="m 150.55,94.55 -1.3,-1.7 0.55,-0.85 c 0.4,0.86667 1.4,1.98334 3,3.35 0.4,0.333334 0.54999,1.01667 0.45,2.05 -0.1,1.033334 -0.0333,1.65 0.2,1.85 0.53334,0.46667 0.86667,0.98334 1,1.55 l 0.1,1.8 c 0,0.8 0.63333,1.4 1.9,1.8 1.63333,0.5 1.7,1.61667 0.2,3.35 -0.6,0.63333 -1.03333,1.43333 -1.3,2.4 -0.19999,0.8 -0.25,1.49999 -0.15,2.1 l 2.85,-1.7 c 0.83333,-0.66666 1.29999,-0.98333 1.4,-0.95 0.16667,0.0333 0.28334,0.58333 0.35,1.65 l -0.3,3.1 c -0.13333,1.16666 0.0833,2.03333 0.65,2.6 1.1,1.09999 1.75001,2.16666 1.95,3.2 0.30001,1.3 -0.05,2.81666 -1.05,4.55 -0.3,0.56667 -0.5,1.30001 -0.6,2.2 -0.13333,1.13334 -0.0833,2.28335 0.15,3.45 0.0667,0.43334 -0.1,0.75 -0.5,0.95 -0.43333,0.2 -0.65,0.16666 -0.65,-0.1 l -0.5,-2.95 c -0.13333,-1.13333 0.15,-2.46667 0.85,-4 0.6,-1.33334 0.86666,-2.43333 0.8,-3.3 -0.1,-1.03334 -0.6,-2 -1.5,-2.9 -0.83332,-0.83333 -1.14999,-1.76667 -0.95,-2.8 0.3,-1.53333 0.35,-2.66666 0.15,-3.4 l -2.15,1.4 c -1,0.6 -1.63334,0.81667 -1.9,0.65 -0.2,-0.16666 -0.3,-0.86666 -0.3,-2.1 -0.0667,-2.09999 0.45,-3.78333 1.55,-5.05 0.36667,-0.4 0.48334,-0.73334 0.35,-1 -0.13334,-0.26667 -0.63334,-0.65 -1.5,-1.15 -0.4,-0.23333 -0.65,-0.49999 -0.75,-0.8 l -0.1,-1.15 c 0,-0.96667 -0.4,-1.88333 -1.2,-2.75 -0.36667,-0.36667 -0.5,-1 -0.4,-1.9 l -0.1,-1.95 -1.25,-1.5 z"
           id="path6517"
           inkscape:connector-curvature="0"
           style="fill:#efe908;stroke-linecap:round;stroke-linejoin:round" />
        <path
           d="m 54.95,23.55 c 0.766667,0.133332 1.35,0.85 1.75,2.15 0.366666,1.333335 0.43333,2.933335 0.2,4.8 -0.299998,2.233334 -0.916666,3.933334 -1.85,5.1 -0.766667,0.933333 -1.5,1.333334 -2.2,1.2 -0.8,-0.2 -1.4,-1.083333 -1.8,-2.65 -0.333333,-1.466666 -0.383332,-3.016667 -0.15,-4.65 0.333334,-2 0.916666,-3.55 1.75,-4.65 0.733335,-1 1.5,-1.433334 2.3,-1.3 z"
           id="path6519"
           inkscape:connector-curvature="0"
           style="fill:#ffffff;stroke-linecap:round;stroke-linejoin:round" />
        <path
           d="m 18.7,16.5 c 0.266667,0.03333 0.433333,0.716665 0.5,2.05 0.03333,1.3 -0.06667,2.533334 -0.3,3.7 -0.433333,2 -0.95,3.516666 -1.55,4.55 -0.533334,0.899999 -1.033334,1.299998 -1.5,1.2 -0.4,-0.1 -0.65,-0.616667 -0.75,-1.55 -0.133334,-1.166665 0.06667,-2.733333 0.6,-4.7 0.466666,-1.699999 0.999999,-3.033333 1.6,-4 0.533334,-0.866667 1.000001,-1.283333 1.4,-1.25 z"
           id="path6521"
           inkscape:connector-curvature="0"
           style="fill:#ffffff;stroke-linecap:round;stroke-linejoin:round" />
        <path
           d="m 46.55,39.4 0.1,-3.5 c 0.733335,-1.266665 1.533334,-1.95 2.4,-2.05 -0.3,2.4 -0.233334,4.35 0.2,5.85 0.466667,1.5 1.283333,2.333333 2.45,2.5 0.9,0.133336 1.816666,-0.266666 2.75,-1.2 1.1,-1.066666 1.883332,-2.63333 2.35,-4.7 0.966666,1.233333 1.483333,2.85 1.55,4.85 l -1.1,3.55 c -1.433334,0.8 -3.416668,1.25 -5.95,1.35 L 47.9,45.9 c -0.799998,-1.666666 -1.25,-3.833334 -1.35,-6.5 z"
           id="path6523"
           inkscape:connector-curvature="0"
           style="fill:#007f78;stroke-linecap:round;stroke-linejoin:round" />
        <path
           d="m 15.95,31.05 c 0.666667,-0.766667 1.133334,-1.833333 1.4,-3.2 0.366667,0.666666 0.55,1.333332 0.55,2 l -1.1,3.35 c -0.9,2.2 -1.783334,3.316666 -2.65,3.35 -0.9,0.03333 -1.65,-0.766667 -2.25,-2.4 l -0.85,-3.3 C 10.95,30.383333 11.06667,29.433332 11.4,28 l 0.5,-2 0.6,-0.6 1.3,-0.75 c -0.6,1.866666 -0.833334,3.516666 -0.7,4.95 0.133334,1.266667 0.516667,2 1.15,2.2 0.533334,0.199998 1.1,-0.05 1.7,-0.75 z"
           id="path6525"
           inkscape:connector-curvature="0"
           style="fill:#007f78;stroke-linecap:round;stroke-linejoin:round" />
        <path
           d="m 29.8,2.35 c 5.266666,-2.0000001 10.466666,-2.7500001 15.6,-2.25 11.766668,1.1666668 19.783334,8.016667 24.05,20.55 1.76667,5.233333 2.58333,10.85 2.45,16.85 -0.1,5.833332 -1.066664,11.149998 -2.9,15.95 -1.5,3.93333 -2.416664,6.43333 -2.75,7.5 -0.96667,2.900002 -1.51667,5.28334 -1.65,7.15 -0.23333,3.6 -0.63333,5.36667 -1.2,5.3 -0.533335,-0.06666 -0.650004,-1.88333 -0.35,-5.45 0.3,-4.2 1.65,-9.183334 4.05,-14.95 1.76667,-4.266666 2.716666,-9.183334 2.85,-14.75 0.133336,-5.7 -0.63333,-11.100002 -2.3,-16.2 -4,-12.366668 -11.466666,-19.1000007 -22.4,-20.2 -4.866665,-0.4666667 -9.833332,0.2333333 -14.9,2.1 -5.1,1.9000004 -9.133333,4.533334 -12.1,7.9 -0.766666,0.866666 -1.266666,1.666666 -1.5,2.4 -0.266666,0.833333 -0.216667,1.733334 0.15,2.7 0.06667,0.2 -0.1,0.383332 -0.5,0.55 L 15.7,17.45 C 14.833333,14.983334 15.316667,12.733334 17.15,10.7 20.35,7.1 24.566668,4.3166666 29.8,2.35 z"
           id="path6527"
           inkscape:connector-curvature="0"
           style="fill:#0d131a;stroke-linecap:round;stroke-linejoin:round" />
        <path
           d="m 50.5,46.55 c -4.233334,0.133334 -6.45,-0.383332 -6.65,-1.55 -0.9,-5.3 -0.2,-10.583332 2.1,-15.85 2.366666,-5.366667 5.199998,-7.883334 8.5,-7.55 3.5,0.333334 5.25,3.950001 5.25,10.85 0,5.866666 -0.666667,9.98333 -2,12.35 -0.56667,1.033332 -2.96667,1.616664 -7.2,1.75 z m 0.4,-1.3 c 3.466665,-0.166668 5.416666,-0.583336 5.85,-1.25 1.433334,-3.666668 1.9,-7.966667 1.4,-12.9 -0.5,-5.1 -1.78333,-7.766666 -3.85,-8 -2.266667,-0.266666 -4.466668,1.733334 -6.6,6 -2.3,4.633334 -3.13333,9.8 -2.5,15.5 0.366666,0.6 2.266667,0.816668 5.7,0.65 z"
           id="path6529"
           inkscape:connector-curvature="0"
           style="fill:#0d131a;stroke-linecap:round;stroke-linejoin:round" />
        <path
           d="m 10.55,30.8 c -0.03333,-2.466666 0.916666,-5.766665 2.85,-9.9 2,-4.333334 3.733333,-6.400001 5.2,-6.2 2.2,0.266667 2.516665,4.016667 0.95,11.25 -1.533334,7.2 -3.333333,10.983334 -5.4,11.35 -0.733333,0.133334 -1.516666,-0.6 -2.35,-2.2 -0.8,-1.533334 -1.216667,-2.96667 -1.25,-4.3 z m 7.65,-5.05 c 1.4,-6.366667 1.466666,-9.55 0.2,-9.55 -1,0 -2.366667,1.883334 -4.1,5.65 -1.733333,3.8 -2.6,6.8 -2.6,9 0,1.233336 0.316666,2.41667 0.95,3.55 0.566666,1.066667 1.033333,1.55 1.4,1.45 1.366667,-0.366666 2.750001,-3.73333 4.15,-10.1 z m -6.5,5.1 0,0.05 z"
           id="path6531"
           inkscape:connector-curvature="0"
           style="fill:#0d131a;stroke-linecap:round;stroke-linejoin:round" />
        <path
           d="m 15.05,45.7 c -0.266667,0.16667 -0.666667,-0.45 -1.2,-1.85 -0.3,-0.766668 -0.266667,-1.283334 0.1,-1.55 0.366667,-0.233334 0.716667,0.05 1.05,0.85 l 0.25,1.5 c 0.03333,0.6 -0.03333,0.95 -0.2,1.05 z"
           id="path6533"
           inkscape:connector-curvature="0"
           style="fill:#0d131a;stroke-linecap:round;stroke-linejoin:round" />
        <path
           d="m 25.6,47.65 c 0.4,-0.533335 0.833332,-0.91667 1.3,-1.15 0.833334,-0.366665 1.3,-0.3 1.4,0.2 0.1,0.466668 -0.266667,0.91667 -1.1,1.35 -1.166665,0.56667 -1.833331,0.76667 -2,0.6 -0.1,-0.133334 0.03333,-0.466666 0.4,-1 z"
           id="path6535"
           inkscape:connector-curvature="0"
           style="fill:#0d131a;stroke-linecap:round;stroke-linejoin:round" />
        <path
           d="m 5.6,34.75 c 1.4,-2.033333 3.183333,-3.833332 5.35,-5.4 0.166667,-0.133333 0.3,0.05 0.4,0.55 0.1,0.5 0.06667,0.816667 -0.1,0.95 -3.9,3.566668 -6.05,6.933333 -6.45,10.1 -0.533333,3.966668 1.5333335,9.633336 6.2,17 4.633334,7.33333 8.75,11.51667 12.35,12.55 1.6,0.433334 4.016667,0.433334 7.25,0 3.200003,-0.46667 6.500002,-1.26667 9.9,-2.4 2.3,-0.76667 3.5,-0.933336 3.6,-0.5 0.133334,0.4 -0.966665,1.03333 -3.3,1.9 -3.466668,1.299995 -7.016667,2.18333 -10.65,2.65 -3.233334,0.36666 -5.633334,0.33333 -7.2,-0.1 C 19.15,70.98333 14.783333,66.666664 9.85,59.1 4.75,51.333332 2.483333,45.13333 3.05,40.5 3.3166666,38.666668 4.1666665,36.75 5.6,34.75 z"
           id="path6537"
           inkscape:connector-curvature="0"
           style="fill:#0d131a;stroke-linecap:round;stroke-linejoin:round" />
        <path
           d="m 51.45,18.85 c 0.2,0.233334 -0.05,0.616667 -0.75,1.15 -1.1,0.833334 -1.883334,1.5 -2.35,2 -0.566667,0.633333 -1.066667,1.416666 -1.5,2.35 -0.466665,1.1 -0.933332,1.6 -1.4,1.5 -0.466666,-0.133333 -0.483333,-0.783332 -0.05,-1.95 0.766668,-1.966666 2.166666,-3.499998 4.2,-4.6 1,-0.5 1.616667,-0.65 1.85,-0.45 z"
           id="path6539"
           inkscape:connector-curvature="0"
           style="fill:#0d131a;stroke-linecap:round;stroke-linejoin:round" />
        <path
           d="m 21.15,18.75 c 0.133333,-1.9 -0.133334,-3.599999 -0.8,-5.1 -0.3,-0.7 -0.333334,-1.116667 -0.1,-1.25 0.233334,-0.133334 0.566668,0.1 1,0.7 1.133333,1.433334 1.6,3.35 1.4,5.75 -0.1,1.133334 -0.4,1.666666 -0.9,1.6 -0.5,-0.03333 -0.7,-0.600002 -0.6,-1.7 z"
           id="path6541"
           inkscape:connector-curvature="0"
           style="fill:#0d131a;stroke-linecap:round;stroke-linejoin:round" />
        <path
           d="m 5.25,42.55 c -0.1666665,-0.7 -0.2,-1.316666 -0.1,-1.85 0.233333,-1.266666 0.4666663,-1.9 0.7,-1.9 0.266667,0.03333 0.3833336,0.7 0.35,2 0,1.06667 0.3,1.950004 0.9,2.65 1.066666,1.2 2.816666,2.716668 5.25,4.55 2.4,1.8 4.1,2.88333 5.1,3.25 1.600001,0.566666 6.466668,1.166664 14.6,1.8 l 15.15,0.7 c 0.866666,-0.03333 1.55,-0.183334 2.05,-0.45 l 1.6,-1.4 c 0.766665,-0.799998 1.233332,-1.08333 1.4,-0.85 0.2,0.2 0.01667,0.766666 -0.55,1.7 -0.466666,0.766666 -1.016666,1.333332 -1.65,1.7 -0.66667,0.366666 -1.516667,0.566666 -2.55,0.6 l -14.85,-0.7 c -8.533333,-0.6 -13.766667,-1.249998 -15.7,-1.95 -1.1,-0.366667 -3,-1.566668 -5.7,-3.6 -2.700001,-2.033334 -4.4666677,-3.583333 -5.3,-4.65 -0.3,-0.4 -0.533333,-0.933333 -0.7,-1.6 z"
           id="path6543"
           inkscape:connector-curvature="0"
           style="fill:#0d131a;stroke-linecap:round;stroke-linejoin:round" />
        <path
           d="M 9.5,49.55 C 9.466666,49.35 9.683332,49.166664 10.15,49 l 0.8,0.05 c 1.3,3.6 3.266667,7.1 5.9,10.5 2.433333,3.133334 4.383334,4.9 5.85,5.3 3,0.8 7.200002,0.11667 12.6,-2.05 5.6,-2.266667 9.933334,-5.183335 13,-8.75 L 49.25,54 c 0.466667,0.100002 0.633335,0.216667 0.5,0.35 -3.066666,3.9 -7.63333,7.133334 -13.7,9.7 C 30.183332,66.51667 25.599998,67.3 22.3,66.4 20.566668,65.933334 18.383335,64 15.75,60.6 12.983334,57.066666 10.9,53.38333 9.5,49.55 z"
           id="path6545"
           inkscape:connector-curvature="0"
           style="fill:#0d131a;stroke-linecap:round;stroke-linejoin:round" />
        <path
           d="m 7.5,48.05 c -0.4666667,-1.333333 -0.7,-2.366666 -0.7,-3.1 0,-0.2 0.2333333,-0.3 0.7,-0.3 0.433333,0 0.65,0.1 0.65,0.3 0,0.4 0.116666,1.166665 0.35,2.3 0.233334,1.233334 0.433333,1.86667 0.6,1.9 0.2,0.03333 0.516667,-0.116667 0.95,-0.45 l 0.85,-0.9 0.95,0.95 -1.65,1.15 -1.4,0.45 C 8.433333,50.216667 8,49.45 7.5,48.05 z"
           id="path6547"
           inkscape:connector-curvature="0"
           style="fill:#0d131a;stroke-linecap:round;stroke-linejoin:round" />
        <path
           d="m 37.6,53.8 0.7,0.1 c 0.366664,0.233335 0.5,0.433336 0.4,0.6 l -2.05,2.15 c -1,0.766668 -1.733332,1.15 -2.2,1.15 -0.4,0 -0.933334,-0.466668 -1.6,-1.4 -0.700002,-0.933333 -1.150001,-1.766665 -1.35,-2.5 -0.03333,-0.2 0.166666,-0.35 0.6,-0.45 0.466666,-0.1 0.716666,-0.05 0.75,0.15 l 0.8,1.95 c 0.4,0.733333 0.683332,1.1 0.85,1.1 0.266666,0.03333 0.783333,-0.299998 1.55,-1 L 37.6,53.8 z"
           id="path6549"
           inkscape:connector-curvature="0"
           style="fill:#0d131a;stroke-linecap:round;stroke-linejoin:round" />
        <path
           d="m 14.15,56.75 c -0.2,0.06667 -0.383334,-0.05 -0.55,-0.35 -0.166667,-0.299998 -0.15,-0.483332 0.05,-0.55 l 1.55,-0.3 c 0.766667,-0.03333 1.25,0.05 1.45,0.25 0.2,0.2 0.216667,0.766666 0.05,1.7 -0.133332,0.899998 -0.316667,1.533333 -0.55,1.9 -0.166667,0.233335 -0.483334,0.05 -0.95,-0.55 l 0.65,-1.6 0.1,-0.85 c -0.166667,-0.166666 -0.766668,-0.05 -1.8,0.35 z"
           id="path6551"
           inkscape:connector-curvature="0"
           style="fill:#0d131a;stroke-linecap:round;stroke-linejoin:round" />
        <path
           d="m 31.15,62.7 c 0.4,-0.966666 0.766666,-1.483333 1.1,-1.55 0.266666,-0.06667 0.666668,0.15 1.2,0.65 l 1.5,1.65 c 0.133336,0.16667 0.05,0.350003 -0.25,0.55 -0.266666,0.166664 -0.466666,0.166664 -0.6,0 -0.8,-1.266666 -1.35,-1.866665 -1.65,-1.8 -0.166667,0.03333 -0.333335,0.383332 -0.5,1.05 l -0.2,1.6 c 0,0.2 -0.183332,0.3 -0.55,0.3 -0.366666,0 -0.55,-0.11667 -0.55,-0.35 0,-0.53333 0.166666,-1.23333 0.5,-2.1 z"
           id="path6553"
           inkscape:connector-curvature="0"
           style="fill:#0d131a;stroke-linecap:round;stroke-linejoin:round" />
        <path
           d="m 14.8,80.55 c 2.666667,-3.3 5.9,-6.33333 9.7,-9.1 0.166666,-0.1 0.366667,0.116666 0.6,0.65 l 0.15,0.9 c -4.033333,2.9 -7.366667,6.03333 -10,9.4 -2.533334,3.23333 -5.75,8.38333 -9.65,15.45 -1.8,2 -3,3.86667 -3.6,5.6 -0.5,1.36667 -0.5166667,2.21666 -0.05,2.55 0.6333335,0.5 2.2833336,0.31667 4.95,-0.55 l 0.7,-0.05 0.1,0.95 c 0,2.36667 0.35,3.65 1.05,3.85 0.5,0.13334 1.383333,-0.41666 2.65,-1.65 1.3,-1.2 2.433333,-2.55 3.4,-4.05 0.2,0.13333 0.333333,0.36666 0.4,0.7 l -0.1,0.9 c -0.566666,1.13334 -1.583333,2.38334 -3.05,3.75 -1.666667,1.53333 -2.883334,2.16666 -3.65,1.9 -1.3333334,-0.36667 -1.9833335,-2 -1.95,-4.9 -1.3333337,0.53333 -2.6000003,0.81666 -3.8,0.85 -1.1333333,0.0333 -1.88333335,-0.15001 -2.25,-0.55 -0.53333336,-0.56666 -0.56666669,-1.65 -0.1,-3.25 0.60000004,-2.06666 1.9833333,-4.35 4.15,-6.85 3.7,-7.099995 7.15,-12.599995 10.35,-16.5 z"
           id="path6555"
           inkscape:connector-curvature="0"
           style="fill:#0d131a;stroke-linecap:round;stroke-linejoin:round" />
        <path
           d="m 6.55,98.5 c 0.3,0.166664 0.1166665,0.75 -0.55,1.75 -1.0666666,1.56667 -1.4333334,2.53333 -1.1,2.9 0.3333336,0.3 1.383334,0.14999 3.15,-0.45 1,-0.43333 1.566667,-0.49999 1.7,-0.2 0.099999,0.33334 -0.333334,0.71667 -1.3,1.15 -2.4000003,1.1 -4.0500004,1.4 -4.95,0.9 -1.0333333,-0.59999 -0.5,-2.26666 1.6,-5 0.7,-0.9 1.183334,-1.25 1.45,-1.05 z"
           id="path6557"
           inkscape:connector-curvature="0"
           style="fill:#0d131a;stroke-linecap:round;stroke-linejoin:round" />
        <path
           d="m 13.4,126.85 c -1.866666,-15.86666 1.900001,-34.3 11.3,-55.3 l 0.8,0.1 c 0.433332,0.26667 0.599998,0.48334 0.5,0.65 -8.966667,20.400005 -12.516667,38.36667 -10.65,53.9 2.433333,20.56666 14.749998,32.23333 36.95,35 0.2,0.0333 0.366668,0.3 0.5,0.8 0.166667,0.53334 0.133334,0.78334 -0.1,0.75 -23.666667,-2.66667 -36.766668,-14.63333 -39.3,-35.9 z"
           id="path6559"
           inkscape:connector-curvature="0"
           style="fill:#0d131a;stroke-linecap:round;stroke-linejoin:round" />
        <path
           d="m 20.55,83.5 c -0.166667,-0.666664 -0.2,-1.08333 -0.1,-1.25 1.266667,-2.73333 2.816666,-4.88333 4.65,-6.45 1.8,-1.53333 3.633334,-2.3 5.5,-2.3 2.5,0 5.316664,2.25 8.45,6.75 2.966666,4.23333 5.75,9.75 8.35,16.55 6.033334,15.83334 8.233335,29.33334 6.6,40.5 l -0.85,1.4 -0.75,0.75 C 54.100002,127.28333 51.833336,113.26667 45.6,97.4 43.1,91 40.43333,85.7 37.6,81.5 c -2.866666,-4.23333 -5.2,-6.35 -7,-6.35 -1.3,0 -2.816667,0.7 -4.55,2.1 -2.100001,1.700005 -3.816668,4.00001 -5.15,6.9 -0.1,0.2 -0.216668,-0.01667 -0.35,-0.65 z"
           id="path6561"
           inkscape:connector-curvature="0"
           style="fill:#0d131a;stroke-linecap:round;stroke-linejoin:round" />
        <path
           d="M 69,97 C 68.5,95 66.65,85.183334 63.45,67.55 63.41667,67.316666 63.633335,66.5 64.1,65.1 c 0.5,-1.366666 0.76667,-1.95 0.8,-1.75 2.033334,14.53333 3.96667,25.35 5.8,32.45 2.43333,9.63333 5.75,17.83333 9.95,24.6 6.83334,11 9.38334,21.23333 7.65,30.7 -0.366666,1.93334 -1.4,5.60001 -3.1,11 -1.400005,4.36666 -2.150005,7.96665 -2.25,10.8 -0.1,2.66667 -0.41667,3.93333 -0.95,3.8 -0.5,-0.13333 -0.683334,-1.56667 -0.55,-4.3 0.2,-3.13334 0.95,-6.91666 2.25,-11.35 1.53333,-5.13333 2.449994,-8.66667 2.75,-10.6 1.33333,-8.7 -1.35,-18.68334 -8.05,-29.95 -4.16666,-7 -7.299994,-14.83334 -9.4,-23.5 z"
           id="path6563"
           inkscape:connector-curvature="0"
           style="fill:#0d131a;stroke-linecap:round;stroke-linejoin:round" />
        <path
           d="m 58.8,171.4 0.75,0.15 c 0.6,0.3 0.933334,0.55 1,0.75 0.9,2.3 1.31667,5.66667 1.25,10.1 -0.03333,4.13334 0.183334,6.55001 0.65,7.25 0.8,1.19999 2.366666,2.14999 4.7,2.85 2.33334,0.7 4.783334,0.96666 7.35,0.8 6.566666,-0.4 10.4,-3.08334 11.5,-8.05 0.26667,-1.23334 -0.35,-3.61667 -1.85,-7.15 -1.6,-3.8 -2.41666,-5.88333 -2.45,-6.25 -0.03334,-0.19999 0.116666,-0.6 0.45,-1.2 0.3,-0.6 0.46666,-0.78333 0.5,-0.55 0.1,1.16668 1.05,3.68334 2.85,7.55 1.6,3.5 2.28333,6.1 2.05,7.8 -0.76667,5.46666 -4.91667,8.5 -12.45,9.1 -3,0.23333 -5.86667,-0.0333 -8.6,-0.8 -2.733334,-0.76666 -4.583332,-1.83333 -5.55,-3.2 -0.766666,-1.13333 -1.016666,-4 -0.75,-8.6 0.266667,-4.76667 -0.2,-8.28333 -1.4,-10.55 z"
           id="path6565"
           inkscape:connector-curvature="0"
           style="fill:#0d131a;stroke-linecap:round;stroke-linejoin:round" />
        <path
           d="m 49.6,156.3 c -1.266668,-6.6 0.06666,-13.48333 4,-20.65 1.233332,-2.23333 2.03333,-3.23333 2.4,-3 0.333332,0.26667 -0.06667,1.56667 -1.2,3.9 -3.133336,6.5 -4.2,12.8 -3.2,18.9 1,6.13333 4.066664,11.61667 9.2,16.45 1.83333,1.73333 2.599998,2.78333 2.3,3.15 -0.266668,0.36667 -1.333334,-0.28332 -3.2,-1.95 -5.666666,-5 -9.1,-10.6 -10.3,-16.8 z"
           id="path6567"
           inkscape:connector-curvature="0"
           style="fill:#0d131a;stroke-linecap:round;stroke-linejoin:round" />
        <path
           d="m 10.75,147.75 c 2.1,-3.40001 4.466667,-6.03334 7.1,-7.9 0.166666,-0.1 0.416666,0.11666 0.75,0.65 0.3,0.5 0.366665,0.81667 0.2,0.95 -2.433333,1.73333 -4.65,4.35 -6.65,7.85 -2.133334,3.66667 -3.1,6.85001 -2.9,9.55 0.166667,2.1 1.1,4.19999 2.8,6.3 1.633333,2.06666 3.650001,3.66667 6.05,4.8 2.066668,1 3,1.66667 2.8,2 -0.166666,0.36667 -1.383334,0.0833 -3.65,-0.85 -2.700001,-1.13334 -4.966667,-2.83334 -6.8,-5.1 -1.866667,-2.26666 -2.8833334,-4.61667 -3.05,-7.05 -0.266667,-3.43334 0.85,-7.16667 3.35,-11.2 z"
           id="path6569"
           inkscape:connector-curvature="0"
           style="fill:#0d131a;stroke-linecap:round;stroke-linejoin:round" />
        <path
           d="m 41.5,170.85 c -0.399998,-1.36666 -1.066666,-2.71667 -2,-4.05 -0.133335,-0.16667 0.01667,-0.4 0.45,-0.7 0.4,-0.3 0.666665,-0.36666 0.8,-0.2 1.133335,1.6 1.933334,3.18333 2.4,4.75 0.466665,1.63334 0.499998,2.96667 0.1,4 -0.399998,1.13334 -2.55,2.46667 -6.45,4 -4.16667,1.66667 -8.316668,2.7 -12.45,3.1 -0.233333,0.0333 -0.366666,-0.2 -0.4,-0.7 -0.06667,-0.5 0.01667,-0.76666 0.25,-0.8 4.033334,-0.40001 7.883332,-1.35 11.55,-2.85 3.3,-1.36666 5.25,-2.61666 5.85,-3.75 0.299998,-0.6 0.266665,-1.53333 -0.1,-2.8 z"
           id="path6571"
           inkscape:connector-curvature="0"
           style="fill:#0d131a;stroke-linecap:round;stroke-linejoin:round" />
        <path
           d="m 10.55,170.25 c 1.5,-0.93333 2.716666,-1.56667 3.65,-1.9 0.2,-0.0667 0.466666,0.13334 0.8,0.6 0.333333,0.46666 0.4,0.71666 0.2,0.75 -0.9,0.33333 -2.033333,0.86667 -3.4,1.6 -1.366667,0.76667 -2.416667,1.43334 -3.15,2 L 7.7,173.15 c -0.466667,-0.23333 -0.616667,-0.41666 -0.45,-0.55 0.866667,-0.69999 1.966667,-1.48333 3.3,-2.35 z"
           id="path6573"
           inkscape:connector-curvature="0"
           style="fill:#0d131a;stroke-linecap:round;stroke-linejoin:round" />
        <path
           d="m 43.1,163.9 c -1.566667,1.6 -2.716665,3.23333 -3.45,4.9 -0.7,1.6 -1.216666,2.33333 -1.55,2.2 -0.333334,-0.13333 -0.266668,-1.03333 0.2,-2.7 0.533332,-1.8 1.5,-3.5 2.9,-5.1 1.333333,-1.63333 2.583333,-2.58333 3.75,-2.85 0.2,-0.0333 0.566666,0.13334 1.1,0.5 0.533332,0.36666 0.7,0.56666 0.5,0.6 -0.866666,0.2 -2.016667,1.01666 -3.45,2.45 z"
           id="path6575"
           inkscape:connector-curvature="0"
           style="fill:#0d131a;stroke-linecap:round;stroke-linejoin:round" />
        <path
           d="m 8.7,172.15 c 0.733333,0.0333 1.4,0.55 2,1.55 0.5,0.83333 0.833333,1.78332 1,2.85 0.03333,0.2 -0.166666,0.33333 -0.6,0.4 -0.433333,0.0333 -0.683333,-0.05 -0.75,-0.25 l -0.75,-2 c -0.433333,-0.66667 -0.783333,-1 -1.05,-1 -1,-0.0333 -2.35,0.59999 -4.05,1.9 -1.6666667,1.23333 -2.4333334,2.06666 -2.3,2.5 0.1333335,0.33333 0.9833334,0.48333 2.55,0.45 l 4.2,-0.45 c 0.2,-0.0333 0.349999,0.16666 0.45,0.6 0.1,0.43333 0.05,0.66667 -0.15,0.7 l -6.7,0.35 c -1.5,-0.16667 -2.28333335,-0.45001 -2.35,-0.85 -0.13333334,-0.86666 0.9666667,-2.21665 3.3,-4.05 2.3,-1.83332 4.033334,-2.73333 5.2,-2.7 z"
           id="path6577"
           inkscape:connector-curvature="0"
           style="fill:#0d131a;stroke-linecap:round;stroke-linejoin:round" />
        <path
           d="m 17.4,179.1 c -0.433333,0 -0.65,-0.1 -0.65,-0.3 -0.03333,-0.86667 -0.25,-1.66667 -0.65,-2.4 -0.466667,-0.76667 -0.95,-1.11666 -1.45,-1.05 -0.9,0.13334 -2.233333,1.03333 -4,2.7 -1.733333,1.6 -2.533333,2.58333 -2.4,2.95 0.099999,0.3 1.099999,0.3 3,0 l 4.45,-0.95 c 0.2,-0.0667 0.3,0.11667 0.3,0.55 0,0.46667 -0.1,0.71667 -0.3,0.75 -1.633333,0.53333 -3.5,0.88332 -5.6,1.05 -2.1666666,0.16667 -3.366667,0.0167 -3.6,-0.45 -0.3333335,-0.7 0.5499997,-2.15 2.65,-4.35 2.1,-2.26667 3.866666,-3.50001 5.3,-3.7 0.9,-0.13334 1.700002,0.3 2.4,1.3 0.733334,1 1.116667,2.2 1.15,3.6 0,0.2 -0.2,0.3 -0.6,0.3 z"
           id="path6579"
           inkscape:connector-curvature="0"
           style="fill:#0d131a;stroke-linecap:round;stroke-linejoin:round" />
        <path
           d="m 17.3,179.8 c -1.666667,1.66667 -2.433333,2.66667 -2.3,3 l 4.1,-0.45 c 2.666666,-0.56666 4.083332,-1.1 4.25,-1.6 0.2,-0.56667 0.03333,-1.33333 -0.5,-2.3 -0.533334,-0.96666 -1.100002,-1.43332 -1.7,-1.4 -0.833334,0.0667 -2.116667,0.98334 -3.85,2.75 z m 1.8,3.75 -5.8,0.3 c -0.366667,-0.6 0.5,-2.1 2.6,-4.5 2.133333,-2.43333 3.833334,-3.69999 5.1,-3.8 0.933332,-0.1 1.9,0.6 2.9,2.1 1,1.43333 1.366666,2.63333 1.1,3.6 -0.233334,0.90001 -2.2,1.66667 -5.9,2.3 z"
           id="path6581"
           inkscape:connector-curvature="0"
           style="fill:#0d131a;stroke-linecap:round;stroke-linejoin:round" />
        <path
           d="m 140.6,147.3 c 5.9,-4.8 10.51667,-11.2 13.85,-19.2 0.0667,-0.2 0.33333,-0.2 0.8,0 0.46666,0.2 0.66666,0.4 0.6,0.6 -3.66667,8.7 -8.66667,15.56666 -15,20.6 -5.69999,4.5 -12.1,7.23334 -19.2,8.2 -6.56666,0.90001 -12.96667,0.20001 -19.2,-2.1 -6.16667,-2.26667 -11.21666,-5.73333 -15.15,-10.4 -0.133336,-0.16667 -0.08334,-0.63333 0.15,-1.4 0.26667,-0.76667 0.46667,-1.06667 0.6,-0.9 4.266666,5.06666 9.499995,8.73333 15.7,11 6.1,2.26667 12.35,2.88334 18.75,1.85 6.66667,-1.1 12.70001,-3.85 18.1,-8.25 z"
           id="path6583"
           inkscape:connector-curvature="0"
           style="fill:#0d131a;stroke-linecap:round;stroke-linejoin:round" />
        <path
           d="m 146.75,159.6 c 6.66667,-7.36666 10.70001,-16.81666 12.1,-28.35 0.0333,-0.2 0.3,-0.26666 0.8,-0.2 0.5,0.0667 0.73333,0.2 0.7,0.4 -1.4,11.56666 -5.50001,21.18333 -12.3,28.85 -5.93333,6.66667 -13.45,11.40001 -22.55,14.2 -8.16666,2.46666 -16.35,3.06667 -24.55,1.8 -7.96667,-1.23333 -14.06667,-3.95001 -18.3,-8.15 -0.13334,-0.13334 -0.06667,-0.53333 0.2,-1.2 0.26667,-0.66667 0.466666,-0.93334 0.6,-0.8 3.966664,3.96667 9.8,6.61668 17.5,7.95 7.96666,1.4 15.9,0.99999 23.8,-1.2 8.86667,-2.46667 16.2,-6.9 22,-13.3 z"
           id="path6585"
           inkscape:connector-curvature="0"
           style="fill:#0d131a;stroke-linecap:round;stroke-linejoin:round" />
        <path
           d="m 142.75,161.7 c 6.93333,-5.36667 11.93333,-12.51667 15,-21.45 l -0.15,2.5 c -3.19999,8.7 -8.31666,15.65 -15.35,20.85 -6.16667,4.6 -13.33334,7.53333 -21.5,8.8 -7.43333,1.16667 -14.58334,0.81667 -21.45,-1.05 -6.76667,-1.8 -11.83333,-4.68333 -15.2,-8.65 -0.13333,-0.16667 -0.06667,-0.51668 0.2,-1.05 0.266666,-0.5 0.46666,-0.66668 0.6,-0.5 3.33334,3.9 8.36667,6.76667 15.1,8.6 6.86667,1.83333 14,2.15 21.4,0.95 8.13334,-1.3 15.25001,-4.3 21.35,-9 z"
           id="path6587"
           inkscape:connector-curvature="0"
           style="fill:#0d131a;stroke-linecap:round;stroke-linejoin:round" />
        <path
           d="m 161.85,69.5 c 0.33333,0.9 0.6,2.01667 0.8,3.35 l 0.25,3.25 c -0.0333,0.9 -0.45,2.85 -1.25,5.85 -0.53333,1.9 -0.36666,3.05 0.5,3.45 1.8,0.8 2.9,2.08333 3.3,3.85 0.4,1.53333 0.3,3.71667 -0.3,6.55 2.13334,-2.133336 3.41668,-2.76667 3.85,-1.9 0.5,0.9 0.28334,3.81667 -0.65,8.75 1.03333,-0.86667 1.68333,-1.05 1.95,-0.55 0.36667,0.63334 0.3,2.46667 -0.2,5.5 l 1.55,-2.2 1,-1.95 c 0.53333,-1.36666 0.9,-2.06666 1.1,-2.1 0.26666,0 0.41666,0.78333 0.45,2.35 l -0.2,2.8 c -0.0667,1.26667 0.0167,2.3 0.25,3.1 0.3,0.93333 0.13333,2.21667 -0.5,3.85 -0.66667,1.66666 -0.88333,2.86667 -0.65,3.6 0.43334,1.5 -0.0833,2.81667 -1.55,3.95 -2.03334,1.53333 -3.21667,2.66666 -3.55,3.4 l -0.9,2 c -0.5,0.83334 -1.06666,1.38334 -1.7,1.65 -1.26667,0.53334 -2.23333,1.16667 -2.9,1.9 -1.59999,1.63333 -2.83333,2.39999 -3.7,2.3 -0.73333,-0.0667 -1.88333,-0.96666 -3.45,-2.7 -1.9,-2.13334 -4.48333,-3.40001 -7.75,-3.8 -1.33332,-0.16666 -2.51666,-1 -3.55,-2.5 -0.96666,-1.4 -1.5,-2.85 -1.6,-4.35 -0.1,-1.03333 0.33334,-2.46667 1.3,-4.3 0.96666,-1.8 1.43332,-2.93333 1.4,-3.4 -0.0333,-0.6 -0.26667,-1.15 -0.7,-1.65 l -1,-1.25 c -0.66667,-1.26667 -0.28334,-3.71667 1.15,-7.35 0.4,-0.93333 0.38334,-1.83333 -0.05,-2.7 -0.5,-1.03333 -0.75,-1.86667 -0.75,-2.5 0.0333,-0.566666 0.31667,-1.36667 0.85,-2.4 l 0.7,-1.7 c 0.13334,-0.7 0.1,-1.51667 -0.1,-2.45 -0.36667,-1.633334 -0.35,-3.05 0.05,-4.25 0.23333,-0.633334 0.76665,-1.58333 1.6,-2.85 0.5,-0.76667 0.81666,-1.13334 0.95,-1.1 0.16668,0.03333 0.26667,0.51666 0.3,1.45 l -0.05,1.4 c 0.0333,0.833334 0.23333,1.716666 0.6,2.65 0.4,1.066666 0.36668,2.333336 -0.1,3.8 -0.3,0.866664 -0.25,1.8 0.15,2.8 l 1.6,-3.1 c 0.43334,-0.76667 0.63334,-1.55 0.6,-2.35 l -0.2,-2.15 c 0,-2.53333 0.7,-4.55 2.1,-6.05 0.83333,-0.93333 2.43333,-2.366664 4.8,-4.3 0.93333,-1.13334 1.51666,-3.01667 1.75,-5.65 0.26667,-2.36667 0.50001,-3.566666 0.7,-3.6 0.26667,-0.06666 0.85,1.13333 1.75,3.6 z m 5.35,33.25 0.8,-5.75 0,-1.55 c -0.1,-0.2 -0.45,-0.06667 -1.05,0.4 -1.63333,1.36667 -2.56667,1.95 -2.8,1.75 -0.2,-0.166666 -0.2,-1.21667 0,-3.15 0.4,-4.133334 -0.46667,-6.7 -2.6,-7.7 -0.9,-0.4 -1.38334,-1.01667 -1.45,-1.85 -0.0667,-0.63334 0.13334,-2.03334 0.6,-4.2 0.53334,-2.56667 0.8,-4.5 0.8,-5.8 0,-1.36667 -0.26666,-3.100005 -0.8,-5.2 -0.26667,1.83333 -0.58333,3.233334 -0.95,4.2 -0.36667,0.96667 -0.86667,1.71667 -1.5,2.25 -2.46666,2.13333 -4.16666,3.95 -5.1,5.45 -0.80001,1.3 -1.15,2.65 -1.05,4.05 0.13334,1.33334 0.11667,2.35 -0.05,3.05 l -0.9,1.95 -0.85,1.35 c -0.26667,0.5 -0.45001,1.13333 -0.55,1.9 -0.16667,1.13333 -0.35,1.71667 -0.55,1.75 -0.16667,0.03333 -0.56667,-0.43333 -1.2,-1.4 -0.66667,-0.96667 -0.75,-2.48334 -0.25,-4.55 0.26666,-1 0.18333,-2.08334 -0.25,-3.25 -0.43333,-1.133334 -0.53334,-2.05 -0.3,-2.75 -0.46666,0.43333 -0.81667,1.216664 -1.05,2.35 -0.23333,1.23333 -0.15,2.3 0.25,3.2 0.36666,0.799995 0.43333,1.799995 0.2,3 l -0.6,1.8 c -0.43333,0.83334 -0.65,1.58334 -0.65,2.25 l 0.4,1.8 c 0.40001,1.26667 0.48334,2.23334 0.25,2.9 -0.96666,2.29999 -1.45,3.89999 -1.45,4.8 0,0.73333 0.35001,1.63333 1.05,2.7 0.7,1.03333 1.01667,1.98333 0.95,2.85 l -0.85,2.65 -1,1.95 c -0.3,0.73333 -0.46668,1.51667 -0.5,2.35 -0.0667,1.36666 0.31666,2.7 1.15,4 0.83333,1.40001 1.85,2.23334 3.05,2.5 l 4.7,1.35 c 1.30001,0.53333 2.41668,1.33334 3.35,2.4 1,1.06667 1.86667,1.65 2.6,1.75 0.8,0.13333 1.66667,-0.28334 2.6,-1.25 0.9,-0.96667 1.88334,-1.71667 2.95,-2.25 0.80001,-0.36667 1.45,-1.2 1.95,-2.5 0.5,-1.33333 1,-2.13334 1.5,-2.4 1.3,-0.73333 2.23334,-1.41666 2.8,-2.05 0.80001,-0.9 1.13334,-1.95001 1,-3.15 -0.1,-0.73333 0.0667,-1.86666 0.5,-3.4 0.43334,-1.53333 0.61667,-2.66666 0.55,-3.4 l 0,-2.8 c 0.1,-1.06667 0.25001,-1.91667 0.45,-2.55 l -1.2,2.35 -1.55,2.8 c -0.76667,1.5 -1.30001,2.23333 -1.6,2.2 -0.3,0 -0.38333,-0.76667 -0.25,-2.3 l 0.4,-3.1 0.25,-3 c -1,0.79999 -1.65,1.13333 -1.95,1 -0.26667,-0.13333 -0.35,-0.71667 -0.25,-1.75 z"
           id="path6589"
           inkscape:connector-curvature="0"
           style="fill:#0d131a;stroke-linecap:round;stroke-linejoin:round" />
        <path
           d="m 46.15,34.7 c 0.566667,-5 1.883333,-8.633332 3.95,-10.9 l 0.95,-0.15 c 0.433334,0.03333 0.583335,0.133335 0.45,0.3 -2.166668,2.366668 -3.5,6.133334 -4,11.3 -0.466667,4.766666 -0.100002,8.266666 1.1,10.5 0.1,0.2 -0.05,0.36667 -0.45,0.5 L 47.4,46.15 C 46,43.45 45.583332,39.633335 46.15,34.7 z"
           id="path6591"
           inkscape:connector-curvature="0"
           style="fill:#0d131a;stroke-linecap:round;stroke-linejoin:round" />
        <path
           d="m 13.2,55.45 c 2.466666,-2.033332 4.899998,-3.15 7.3,-3.35 0.233334,0 0.583334,0.166666 1.05,0.5 0.466666,0.33333 0.6,0.5 0.4,0.5 -1.366666,0.1 -2.833333,0.483336 -4.4,1.15 -1.4,0.633335 -2.616667,1.36667 -3.65,2.2 -0.133334,0.133336 -0.316667,0.03334 -0.55,-0.3 -0.233333,-0.33333 -0.283333,-0.566664 -0.15,-0.7 z"
           id="path6593"
           inkscape:connector-curvature="0"
           style="fill:#0d131a;stroke-linecap:round;stroke-linejoin:round" />
        <path
           d="m 62.2,190.7 c 0.2,-0.7 0.633336,-1.33333 1.3,-1.9 0.799995,-0.63333 1.58333,-0.83333 2.35,-0.6 1.03333,0.33333 1.816664,1.05 2.35,2.15 0.466664,0.96667 0.599995,1.8 0.4,2.5 -0.33334,1.13334 -1.183336,2.56667 -2.55,4.3 -1.33333,1.63334 -2.216668,2.46667 -2.65,2.5 -0.533335,0.0333 -0.950003,-1.18333 -1.25,-3.65 -0.299998,-2.43333 -0.28333,-4.2 0.05,-5.3 z"
           id="path6595"
           inkscape:connector-curvature="0"
           style="fill:#ffffff;stroke-linecap:round;stroke-linejoin:round" />
        <path
           d="m 72.35,192.5 c -0.13333,-0.96666 -0.05,-1.81667 0.25,-2.55 0.36667,-0.9 1.01667,-1.45 1.95,-1.65 1.8,-0.33333 3.06666,0.35001 3.8,2.05 0.43333,1.03333 0.53333,2.83333 0.3,5.4 -0.23333,2.53334 -0.58333,3.90001 -1.05,4.1 -0.46667,0.2 -1.35,-0.45 -2.65,-1.95 -1.43333,-1.66668 -2.3,-3.46668 -2.6,-5.4 z"
           id="path6597"
           inkscape:connector-curvature="0"
           style="fill:#ffffff;stroke-linecap:round;stroke-linejoin:round" />
        <path
           d="m 85,194.75 c -2.1,-1.73334 -3.11667,-2.83334 -3.05,-3.3 0.233334,-2.16667 0.9,-3.76668 2,-4.8 1.03333,-0.96667 1.91666,-1.03333 2.65,-0.2 0.66666,0.76667 1.28333,2.70001 1.85,5.8 0.599995,3.03334 0.716664,4.63335 0.35,4.8 -0.43333,0.2 -1.7,-0.56666 -3.8,-2.3 z"
           id="path6599"
           inkscape:connector-curvature="0"
           style="fill:#ffffff;stroke-linecap:round;stroke-linejoin:round" />
        <path
           d="m 46.05,81.25 c 3.033332,-3.700005 5.933334,-6.75001 8.7,-9.15 L 66.1,89.75 c -1.46667,5.23333 -4.700002,10.46666 -9.7,15.7 -1.766665,1.83333 -4.45,4.18333 -8.05,7.05 l -4.1,3.6 c -1.7,1.4 -2.833336,2 -3.4,1.8 -0.5,-0.13334 -0.933336,-1.15001 -1.3,-3.05 l -0.4,-2.8 -2.55,1.6 c -1.8,0.96667 -2.933332,1.21667 -3.4,0.75 -0.433334,-0.43333 -0.516666,-1.46667 -0.25,-3.1 l 0.5,-2.3 c -2.466666,0 -3.683334,-0.38333 -3.65,-1.15 0.03333,-0.53333 0.666667,-1.31667 1.9,-2.35 1.533334,-1.29999 2.583333,-2.36666 3.15,-3.2 1.366667,-6.633336 5.1,-13.650006 11.2,-21.05 z"
           id="path6601"
           inkscape:connector-curvature="0"
           style="fill:#ef8200;stroke-linecap:round;stroke-linejoin:round" />
        <path
           d="m 41.1,117.8 c 1.9,-3.53333 3.333334,-5.88333 4.3,-7.05 l 9.5,-8.65 c 5.1,-4.56667 8.65,-8.56667 10.65,-12 -0.4,3.43333 -2.583333,7.66667 -6.55,12.7 -3.666668,4.66667 -6.95,7.73333 -9.85,9.2 -4.266665,3.43333 -6.95,5.36667 -8.05,5.8 z"
           id="path6603"
           inkscape:connector-curvature="0"
           style="fill:#cf7100;stroke-linecap:round;stroke-linejoin:round" />
        <path
           d="m 67.45,189.25 c 1.26667,1.90001 1.233334,4.08334 -0.1,6.55 -1.13333,2.1 -2.3,3.33333 -3.5,3.7 l 2.55,-5.55 c 0.76667,-2.1 1.11667,-3.66666 1.05,-4.7 z"
           id="path6605"
           inkscape:connector-curvature="0"
           style="fill:#dbdcdc;stroke-linecap:round;stroke-linejoin:round" />
        <path
           d="m 73.25,189.2 1.25,4.85 c 0.53333,1.93334 1.15,3.68334 1.85,5.25 -0.6,0.13333 -1.38333,-0.6 -2.35,-2.2 -1,-1.63334 -1.566666,-3.16668 -1.7,-4.6 -0.09999,-1.23334 0.03334,-2.15001 0.4,-2.75 l 0.55,-0.55 z"
           id="path6607"
           inkscape:connector-curvature="0"
           style="fill:#dbdcdc;stroke-linecap:round;stroke-linejoin:round" />
        <path
           d="m 82.75,188.9 2.6,3.45 c 1.76667,2.43334 2.7,4.05001 2.8,4.85 l -2.95,-2.15 c -1.96667,-1.63333 -2.95,-2.86667 -2.95,-3.7 0,-0.83332 0.08334,-1.48333 0.25,-1.95 l 0.25,-0.5 z"
           id="path6609"
           inkscape:connector-curvature="0"
           style="fill:#dbdcdc;stroke-linecap:round;stroke-linejoin:round" />
        <path
           d="m 63.4,188.15 c 0.86666,-0.46667 1.68333,-0.6 2.45,-0.4 1.1,0.26666 1.966666,0.95 2.6,2.05 0.56667,0.96666 0.80001,1.98333 0.7,3.05 -0.13334,1 -1.000006,2.53333 -2.6,4.6 -1.599995,2.06666 -2.699998,3.06666 -3.3,3 -0.733334,-0.0333 -1.283333,-1.51668 -1.65,-4.45 -0.333334,-2.90001 -0.283334,-4.93335 0.15,-6.1 0.266666,-0.7 0.816666,-1.28333 1.65,-1.75 z m 3.9,2.2 c -0.43333,-0.8 -1.01667,-1.25 -1.75,-1.35 -1.26667,-0.1 -2.100003,0.38335 -2.5,1.45 -0.4,1 -0.48333,2.63333 -0.25,4.9 0.166667,2.13334 0.416667,3.26667 0.75,3.4 0.333335,0.13333 1.06667,-0.58333 2.2,-2.15 1.13333,-1.6 1.799995,-2.9 2,-3.9 0.13333,-0.8 -0.01667,-1.58333 -0.45,-2.35 z"
           id="path6611"
           inkscape:connector-curvature="0"
           style="fill:#0d131a;stroke-linecap:round;stroke-linejoin:round" />
        <path
           d="m 74.6,187.6 c 0.833334,-0.16667 1.61667,-0.05 2.35,0.35 0.76667,0.4 1.35,1.01667 1.75,1.85 0.56667,1.23333 0.7,3.31665 0.4,6.25 -0.3,2.86667 -0.766664,4.38333 -1.4,4.55 -0.866664,0.23333 -2.116664,-0.83334 -3.75,-3.2 -1.66667,-2.4 -2.46666,-4.35 -2.4,-5.85 0.06667,-0.9 0.35,-1.71667 0.85,-2.45 0.56667,-0.83332 1.3,-1.33332 2.2,-1.5 z m 3.4,8.05 c 0.26667,-2.33333 0.11667,-4.06667 -0.45,-5.2 -0.233334,-0.53334 -0.616666,-0.93334 -1.15,-1.2 -0.5,-0.26666 -1.01667,-0.34999 -1.55,-0.25 -0.46667,0.1 -0.88333,0.38333 -1.25,0.85 -0.433336,0.53333 -0.63333,1.13332 -0.6,1.8 0.03333,1.6 0.683334,3.31667 1.95,5.15 1.133336,1.63333 1.883336,2.38333 2.25,2.25 0.33333,-0.1 0.6,-1.23333 0.8,-3.4 z"
           id="path6613"
           inkscape:connector-curvature="0"
           style="fill:#0d131a;stroke-linecap:round;stroke-linejoin:round" />
        <path
           d="m 85.05,195.6 c -2.3,-1.9 -3.483334,-3.33334 -3.55,-4.3 -0.1,-1.3 0.333336,-2.65 1.3,-4.05 1,-1.5 2.05,-2.15 3.15,-1.95 1.2,0.26667 2.18334,2.38333 2.95,6.35 0.76667,3.9 0.816675,6.01667 0.15,6.35 -0.43333,0.23334 -1.76667,-0.56667 -4,-2.4 z m -1.4,-7.35 c -0.566664,0.96666 -0.816664,1.95 -0.75,2.95 0.03333,0.76667 0.88333,1.81668 2.55,3.15 1.56667,1.30001 2.45,1.88334 2.65,1.75 0.26667,-0.23333 0.13334,-1.68333 -0.4,-4.35 -0.56667,-2.83333 -1.25,-4.5 -2.05,-5 -0.76667,-0.0667 -1.43333,0.43333 -2,1.5 z"
           id="path6615"
           inkscape:connector-curvature="0"
           style="fill:#0d131a;stroke-linecap:round;stroke-linejoin:round" />
        <path
           d="m 40.85,86.3 c 3.2,-5.16666 6.766665,-9.28333 10.7,-12.35 1.733333,-1.33334 2.733333,-1.900005 3,-1.7 0.3,0.23333 -0.333333,1.1 -1.9,2.6 -3.866667,3.73333 -7.26667,7.86666 -10.2,12.4 -3.3,5.066666 -5.566665,9.95 -6.8,14.65 -0.233332,0.8 -0.75,1.64999 -1.55,2.55 l -2.2,2 c -0.8,0.66666 -1.066666,1.13333 -0.8,1.4 0.266667,0.26667 1.116667,0.4 2.55,0.4 0.200002,0 0.283334,0.23333 0.25,0.7 -0.03334,0.46666 -0.150004,0.7 -0.35,0.7 -1.866668,0 -3.216668,-0.26667 -4.05,-0.8 -1.133333,-0.76667 -0.75,-1.93334 1.15,-3.5 l 2.45,-2.1 c 0.566668,-0.56667 0.91667,-1.15 1.05,-1.75 1.4,-5.200005 3.633333,-10.26667 6.7,-15.2 z"
           id="path6617"
           inkscape:connector-curvature="0"
           style="fill:#0d131a;stroke-linecap:round;stroke-linejoin:round" />
        <path
           d="m 57.45,103.35 c 2.8,-3.433336 4.9,-6.933336 6.3,-10.5 0.933334,-2.33334 1.55,-3.41667 1.85,-3.25 0.333334,0.16666 0.100005,1.48333 -0.7,3.95 -1.2,3.8 -3.216666,7.41667 -6.05,10.85 -2.633333,3.23333 -5.566667,5.83333 -8.8,7.8 -0.633336,0.4 -2.16667,1.7 -4.6,3.9 -2.366664,1.93333 -4.033332,2.75 -5,2.45 -0.533332,-0.16666 -1,-0.79999 -1.4,-1.9 -0.4,-1.1 -0.583333,-2.25 -0.55,-3.45 -1.3,0.93333 -2.566666,1.53333 -3.8,1.8 l -2.15,-0.1 c -0.433335,-0.36667 -0.566668,-1.2 -0.4,-2.5 0.16667,-1.26667 0.566667,-2.51667 1.2,-3.75 0.9,-1.73333 1.533335,-2.53333 1.9,-2.4 0.366665,0.1 0.149998,1.08333 -0.65,2.95 -0.966665,2.26667 -1.216665,3.63334 -0.75,4.1 L 35.7,113 c 1,-0.36667 1.966668,-0.85 2.9,-1.45 0.466666,-0.3 0.766665,-0.41667 0.9,-0.35 0.166668,0.0333 0.266666,0.31666 0.3,0.85 0.2,2.93333 0.633334,4.49999 1.3,4.7 0.566668,0.16666 1.783335,-0.55 3.65,-2.15 l 4.7,-3.85 c 2.633336,-1.63333 5.300004,-4.1 8,-7.4 z"
           id="path6619"
           inkscape:connector-curvature="0"
           style="fill:#0d131a;stroke-linecap:round;stroke-linejoin:round" />
      </g>
    </g>
  </g>
</svg>
