<svg xmlns="http://www.w3.org/2000/svg" version="1" width="454" height="481" viewBox="-0.05 -1.15 453.5 480.55"><path fill="#0d131a" d="M132 162q-9 8-15 16h-2l-7-5h-1v-1q5-16 10-26 10-22 22-32 2-2 5-2 2 0 3 2 3 7 4 18 1 13-3 17l-4 3-12 10"/><path fill="#1d2087" d="M109 172l10-24q10-21 20-30l4-2 2 1 3 15q2 13-1 16l-4 2-12 10q-9 8-15 17l-7-5"/><path fill="#0d131a" d="M444 80q7 1 8 5l1 5-3 7-7 9q-6 8-12 11-4 3-11 3h-19q-8 0-22-3l-13-3q1 4 11 9 13 7 26 8 15 1 15 9l-3 7q-2 5-6 9-10 13-19 12 1 6-10 15-11 10-19 10v2l-2 3-12 7q-6 3-11 3-10 1-24-9l-14-10-16-10q-11-6-24-10-16-5-31-5-14 0-29 5-16 5-28 15-1 1-20-14l-19-16 39-33q41-34 49-39 13-7 27-11 17-4 43-6l27-3q25-2 31-1l46 10q42 9 51 9"/><path fill="#e9eff8" d="M447 96l-7 8-12 10q-8 5-27 3l-6-1-21-3h-10v1q0 2 3 5l8 6q13 8 27 8 9 1 11 5 2 3 0 7-5 9-12 15t-13 6l-3 1 1 1v1q-3 8-13 15t-17 5l1 2v1l-2 4q-6 5-12 7l-10 2q-7 0-28-14l-17-12-14-8-15-5q-15-4-28-5-15 0-30 4-19 5-33 16-1 1-12-7l-20-20 17-14 38-33q23-19 32-23 11-6 23-9 13-4 34-5l14-2 31-3q17-2 24 0l35 7 32 6q16 4 27 5 4 0 6 3v5l-2 5"/><path fill="#c9cfd7" d="M383 134l18 3q11 3 12 7v1q-5 9-12 15t-13 6l-3 1 1 1v1q-3 8-13 15t-17 5l1 2v1l-2 4q-6 5-12 7l-10 2q-7 0-28-14l-17-12-14-8-15-5q-15-4-28-5-15 0-30 4-19 5-33 16-1 1-8-5l-17-14q18-19 42-36 27-18 42-21 14-2 29-1l22 2 25-1 21 1 27 3q20 2 21 4h-8v1l2 3 4 4-3 8-3 6 7-8 3 2 9 5M401 117l-6-1-18-3 1-2 1-6 32 4 22 1-5 4q-8 5-27 3"/><path fill="#e9eff8" d="M376 103q3 2 2 7l-6 13-9 14q-6 4-12 5h-10l-11-3-10-2-8 1-4 1-15-41h15l12-3 9 1 8 2 17 2h16q4 0 6 3"/><path fill="#c9cfd7" d="M320 137l-8 1-4 1-12-34 28 1 27 3q20 2 21 4t-2 10l-6 12 2-2-3 4q-6 4-12 5h-10l-11-3-10-2"/><path fill="#0d131a" d="M378 100q3 2 3 5 1 5-4 16-6 12-12 17t-13 6q-6 1-11-1l-13-4h-27q-1-1 5-2l14-1 9 1 12 4h10q6-1 11-5t11-15q5-11 4-16 0-2-2-3-2-2-5-1h-16l-17-2-7-1-7-2-13 2-16 1-4-2h4l15-2 14-2 9 1 8 2 16 2h16q4 0 6 2M335 150q-4-2-3-3t5 1l7 2 8 3 19 8q12 5 17 5l1 1v1q-10 0-38-13l-9-3-7-2M347 184l9 5 3 1 2 1v1l-1 1q-6-1-13-6l-13-10-10-7-5-3-4-3h4q5 2 16 11l12 9M151 93l1-1 16 9q15 8 15 11l-1 8v10l-3 2-3 1h-13q-3-1-16-25v-1q2-13 4-14"/><path fill="#922f00" d="M167 102q13 7 14 9v17l-1 1-2 1-2 2h-7l-5-1-6-8-9-16 3-13 15 8"/><path fill="#0d131a" d="M150 102q4-2 10 0 6 1 11 4 5 4 7 9 3 6 1 12-3 10-14 1-5-3-9-8l-5-8q-4-8-1-10"/><path fill="#ed8599" d="M152 111l-1-4v-3l5-1h6l8 4 5 6q4 7 3 13-2 4-6 6-2 1-9-6l-11-15"/><path fill="#ce7486" d="M152 110q-2-5-1-6l5-1h6l8 4 5 6 2 4q-11-7-25-7"/><path fill="#0d131a" d="M191 51l-1-2v-2l4-14q3-9 3-15l1-1v1q6 11 9 29t1 28q-2 8-4 8t-5-5l-8-27"/><path fill="#1d2087" d="M198 28l1-5 4 17q3 14 3 26v10l-2 4v1l-3-4q-4-8-9-26v-2l4-12 2-9"/><path fill="#0d131a" d="M8 125q1-3 6-4h9q21 5 43 22l23 21h1l-1 1-11 8-2 1q-12-5-37-10l-23-3q-7-1-9-14-3-13 1-22"/><path fill="#1d2087" d="M11 127q0-2 3-3h8q19 4 41 20l24 20-11 8q-12-5-29-9l-24-4-6-1q-3-1-5-5l-3-7v-8q0-7 2-11"/><path fill="#15126f" d="M47 163l-24-4-6-1q-3-1-5-5l-2-3q6 3 32 9 28 7 38 11l-4 2q-12-5-29-9"/><path fill="#0d131a" d="M0 200q0-5 8-8 8-2 22-2 29 1 60 13l1 1h-1l-6 12-2 2-30 4-23 6-7 1q-8 2-16-11l-4-10-2-8"/><path fill="#1d2087" d="M10 194q7-2 18-2 28 0 60 12l-6 12q-14 0-31 3l-23 6-7 1q-4 1-11-8-7-10-6-18 0-3 6-6"/><path fill="#15126f" d="M21 226q-3 1-7-4l10-1 9-2 17-5 16-3 18 2-2 3q-14 0-31 3l-23 6-7 1"/><path fill="#0d131a" d="M63 238l31-5 1 2v2l-2 17q-12 5-32 21l-19 15h-5l-3-3-3-1q-3-1-10-8l-9-10q-1-3 1-6 1-3 5-6 18-12 45-18"/><path fill="#1d2087" d="M92 251q-13 5-27 15l-19 14-5 4-4 2-3-1-3-1q-2 0-9-7t-8-10v-1l1-4q1-3 4-5 17-11 43-16 16-3 32-3l-2 13"/><path fill="#1d2087" d="M92 251q-13 5-27 15l-19 14-5 4-4 2-3-1-3-1q-2 0-9-7t-8-10v-1l1-4q1-3 4-5 17-11 43-16 16-3 32-3l-2 13"/><path fill="#15126f" d="M93 247l-1 4q-13 5-27 15l-19 14-5 4-4 2-3-1-3-1-2-1 19-12 15-11 14-7 16-6"/><path fill="#0d131a" d="M122 266h1l1 1 1 13-1 2q-11 8-23 21l-15 17-5 6q-2 2-5 2h-4l-2-1q-3 0-12-6-8-5-10-8l-1-6q1-4 5-7 27-27 70-34"/><path fill="#1d2087" d="M123 281q-12 8-24 20l-16 18-4 5-4 2h-2l-3-1q-3 0-11-5t-10-8v-2q0-5 4-9 14-14 39-24 15-6 30-9l1 12v1"/><path fill="#15126f" d="M123 278v3q-12 8-24 20l-16 18-4 5-4 2h-2l-3-1-4-1q6-3 13-10l12-13 16-13q9-7 16-10"/><path fill="#0d131a" d="M309 242q7 1 11 6 6-1 12 6 6 6 4 14 6 2 6 11t-7 13q-22 11-45 31l-16 14-10 8q-3 2-7 2-4 1-7-1-10-7-9-31-3 6-14 7-11 2-17-3-4-4-8-20-5-18-4-36 0-16 4-28 5-17 17-22 8-4 17-2t17 8q7 6 12 14t5 18l-1 13-4 14q13-26 30-34 8-3 14-2"/><path fill="#e9eff8" d="M306 245q7 1 12 6 6-2 11 5 5 6 4 14l2 1q3 2 3 6v8q-1 3-4 5-19 9-37 23l-25 21-9 8q-6 4-11 1-3-1-6-9t-3-20v-2l-3-5-1-1v2l2 5q-16 11-30 4-4-2-8-18-4-17-4-36 1-16 4-27 5-17 16-22 6-2 14 0 8 1 16 6 8 6 12 14 6 8 6 18 0 14-5 30-4 14-8 19l-2 2 3-2 4-5 3-6q4-11 14-23 11-14 19-19 5-3 11-3"/><path fill="#c9cfd7" d="M205 230l7-4 22 6q8 0 15 11 7 10 7 23 0 12-2 23-1 10-3 13-1 2 3 1 3-1 5-4l5-8 10-13q7-9 18-17 11-9 15-9 5 0 10 3 4 3 4 5h4q5 2 7 13h1l2 2q3 5 1 13l-2 2q-19 9-37 23l-25 21-9 8q-6 4-11 1-3-1-6-9t-3-20v-2l-3-5-1-1v2l2 5q-16 11-30 4-4-2-8-18-4-17-4-36 1-20 6-33"/><path fill="#0d131a" d="M362 379l10-15q5-6 7-5l1 20v20l-2 3-14 11-14 12-2 2 1-5q0-19 13-43"/><path fill="#1d2087" d="M377 397v3l-9 8-18 15 1-1 5-20q5-16 12-28l9-12 1 6v5l-1 24"/><path fill="#15126f" d="M375 383l2-21 1 6v5l-1 24v3l-4 3 2-20"/><path fill="#0d131a" d="M363 440h-5l2-2 11-17 11-16 2-2 32-5 16-2-4 6q-4 6-12 12-22 18-53 26"/><path fill="#1d2087" d="M376 416l8-11q4 1 31-4 11-3 12-2l-8 8-5 5q-12 10-28 17l-22 8h-2l14-21"/><path fill="#15126f" d="M364 437h-2l4-6q18-3 33-12 15-8 26-20h2l-8 8-5 5q-12 10-28 17l-22 8"/><path fill="#0d131a" d="M161 13q20 10 33 24 15 17 16 39 3 34-13 49l-4 3-2 1-2-2v-2q-1-5-7-10-5-6-13-8l-5 3h-1l-1-3v-5l-3-2-2 7 7 14 6 9h7l7-1h2v1l-1 3-3 2-9 1-10-1q-2-1-10-14l-9-13q-4-3-11-2t-11 5q-2 2-2 12-1 12 4 17 5 8 20 18l25 14q15 8 33 21 24 18 29 29 7 13 10 31t0 28l-2 5-4 11-4 12q-7 13-17 19l-4 3-2 6q-4 15 1 34 5 17 17 33 13 16 30 25 18 10 38 10 17 1 34-7 18-9 33-24 12-12 27-22 12-7 13-6l-7 14q-10 15-13 23-13 30-44 47-29 15-65 15-63-1-100-38-36-36-49-107-2-8-10-23l-19-32q-26-47-32-85l-2-18q-1-16 1-32 4-38 18-58 14-19 40-28l9-3q4-2 5-6 4-12-7-31l-8-12-3-5q1-2 15 1 16 4 31 11"/><path fill="#e9eff8" d="M137 50v-2l1-3q1-12-9-28l-6-9-4-5 9 1 12 4q14 4 26 11 39 21 41 56l1 10q0 14-3 24-3 8-7 13l-5 4-2 1-1-2v-3q-2-7-11-13l-7-3-3-1-5 3v-7l-5-3h-1l-3 9 6 13q6 11 8 11l8 1 7-1-2 3h-8l-9-1q-2 0-10-13l-10-13q-4-4-11-3-8 0-13 4l-6 7q-1 2 4-2-2 6-2 14 1 10 4 15 6 7 22 17l26 15q14 7 32 21 23 17 29 28 7 13 9 31 3 18 0 26l-2 6-9 22q-8 13-19 19-3 2-5 9-3 13 2 32 5 21 17 38 5 7 13 14 10 9 22 14 14 7 29 9 16 1 30-4 20-6 31-14l8-7 8-8 11-11 14-11 8-4-3 5-6 8-5 10-11 20-15 18q-21 18-48 26-24 7-51 4-25-2-47-12t-36-25q-19-19-32-46t-19-59q-2-10-8-22-3-8-13-23l-21-40q-12-26-18-54l-1-9-1-14q0-17 2-33 3-20 10-36 9-20 23-30 6-5 13-8l11-4 10-4q4-2 6-6"/><path fill="#c9cfd7" d="M233 297q-4 10-9 17-6 9-15 13-3 2-5 9-3 13 2 32 5 21 17 38 5 7 13 14 10 9 22 14 14 7 29 9 16 1 30-4 20-6 31-14l8-7 8-8 11-11 14-11 8-4-3 5-6 8-5 10-11 20-15 18q-21 18-48 26-24 7-51 4-25-2-47-12t-36-25q-19-19-32-46t-19-59q-1-4 2-14 4-11 10-21 19-29 48-25 28 4 41 15 7 5 8 9"/><path fill="#e9eff8" d="M137 50v-2l1-3q1-10-6-23-4-8-11-16 17 4 32 18 15 13 25 32 10 18 14 37 3 19-1 34l-1-2v-3q-2-7-11-13l-7-3-3-1-5 3v-7l-6-4-1 4-2 6 6 13q6 11 8 11l8 1 7-1-2 3h-8l-9-1q-2 0-10-13l-10-13q-4-4-11-3-8 0-13 4l-6 7q-1 2 4-2-2 6-2 14 1 10 4 15l1 1q6 10 23 23l21 13 31 21q40 33 43 74l-1 6-2 6-9 22q-8 13-19 19-3 2-5 9-3 13 2 32 5 21 17 38 5 7 13 14 10 9 22 14 14 7 29 9 16 1 30-4l5-1 2 1q0 2-3 3-11 9-28 15-19 5-41 5-43 0-79-37-15-14-26-33-10-16-16-31l-5-19v-1l-2-8q-2-10-8-22-3-8-13-23l-20-37q-11-24-18-50l-1-26q0-13 5-30 4-17 12-33 7-16 15-27 9-12 15-14 18-7 22-16 3-2 4-5"/><path fill="#c9cfd7" d="M220 284q9 5 12 11l-1 7q-9 18-22 25-3 2-4 8-11 5-23 5-18 0-31-10-14-10-18-26 8-15 19-23 14-10 32-8 23 3 36 11"/><path fill="#0d131a" d="M112 180q1-1 18 4 18 5 23 5l1-9v-11l1-1h1q41 12 65 37 25 26 25 57 0 29-16 46t-40 15q-34-4-64-39-11-13-19-28-8-13-9-21-1-5 5-30t9-25"/><path fill="#5084c4" d="M122 185l13 3q19 4 20 3l1-9 1-12q13 4 28 12 26 14 41 34 16 20 16 46 0 30-15 45t-38 13q-32-3-61-37-10-13-18-28-7-13-8-21v-1q0-7 5-28 5-20 7-22l8 2"/><path fill="#4573ab" d="M227 294q12-8 14-21-2 24-17 37-14 12-35 10-27-3-52-28 13 7 30 11 17 3 32 1 17-2 28-10"/><path fill="#0d131a" d="M139 229q10-2 19 0 9 3 16 9 18 14 19 41 1 20-4 32l-4 9-2 8q0 3-13 2-13 0-22-3-17-6-25-12-11-10-14-27-4-23 3-39 8-17 27-20"/><path fill="#c9cfd7" d="M126 237q6-5 14-7 7-1 16 1 8 2 15 7 16 12 19 37 1 10-1 21-1 10-4 17l-3 6q-1 4 1 9l1 3-2 3q-3 3-11 2-7 0-16-3-15-5-27-15-13-13-16-30-2-10-1-20 1-9 5-18 4-8 10-13"/><path fill="#e9eff8" d="M116 250q4-8 10-13t14-7q10-2 22 3-19 2-31 19-13 17-13 40l2 16q-6-9-8-20-2-10-1-20 1-9 5-18"/><path fill="#0d131a" d="M120 232q-2-12 3-20 5-7 11-7 1-7 10-10 7-3 12-2 4-5 12-6 9-1 13 4 2 2 2 8v4q-1 78 2 87 2 7 1 12-1 6-4 9-4 3-9 3t-11-3q-14-8-25-28-11-21-17-51"/><path fill="#e9eff8" d="M135 208h1l1-3 4-5q5-4 11-4h4q2-3 9-5t11 0q3 1 3 4l1 9q-1 75 2 85 5 13-2 19t-17 0q-13-7-26-32t-14-48q-1-10 4-16 3-3 8-4"/><path fill="#c9cfd7" d="M132 251q-5-25 3-33 2-2 6-2h3q3-11 13-13l8 1q4-6 9-7 4 0 6 3v4q-1 75 2 85l1 3q1 7-3 11-3 4-8 4-3 0-8-3l-12-10q-15-17-20-43"/><path fill="#0d131a" d="M143 321q-2 6-6 9-4 4-8 3-3 0-12-8l-17-18-9-10v-1l-1-1q1-1 19 4l25 8q12 4 9 14"/><path fill="#e9eff8" d="M135 329q-2 3-6 3-3-1-12-10l-15-16-8-9 18 6 21 7q7 3 8 6l-2 6-4 7"/><path fill="#0d131a" d="M61 147l9 4q8 6 8 30l-2 18-4 12q-2 3-4 2l-4-1h-4l-1 2v3q0 8 3 21 4 14 12 29 8 14 19 27 14 16 31 26l27 10 23 8q3 2 3 9l-2 13-7 12q-4 6-7 7h-9l-18-5 11 8 6 9q6 12-2 26l-7 10-8 6q-1 10-7 16-7 5-16 5l-10 5-9 2q-17 0-34-20-16-19-28-51-13-31-19-66-7-36-5-65 1-20 13-55 11-33 19-46 3-5 7-8l8-4q3-1 8 1M116 32q32 12 53 36 9 11 13 21 4 11 2 19l-18-12q-13-9-19-11-3-11-12-25-8-13-16-22l-5-5v-2l2 1"/><path fill="#1d2087" d="M138 61q-7-13-20-27 31 14 50 37 8 9 12 19 4 9 3 15-9-8-22-15l-12-6q-3-11-11-23"/><path fill="#0d131a" d="M162 77l4 2q7 4 11 12l4 12v1h-2l-12-8-4-4h-1v-6l1-6v-2l-1-1"/><path fill="#fff" d="M179 102l-8-6-7-4v-8l1-4 7 6 5 8 1 5 1 3"/><path fill="#dbdcdc" d="M179 102l-4-9q-4-6-11-10l1-3 7 6 5 8 2 8"/><path fill="#0d131a" d="M176 93l1 1-2 3-2 1-1-5 2-4 1 2-1 2v1h1q1 1 1-1"/><path fill="#fff" d="M175 94h-1v-1l1-2 1 2q0 2-1 1"/><path fill="#0d131a" d="M317 249h2q7 8 2 15l-17 12-3 1 2-2q13-9 16-14t-1-10l-1-1v-1M333 270l2-1 1-1q-2 6-12 12l-8 6q-3 3-4 2l3-3 8-6q8-5 10-9M135 208h-2v-2l1-1q8 0 11 8l3 21-1 4-1-4-3-17q-3-10-8-9M156 196l-1-1 1-2 7 3q3 3 3 5l1 11v13l-1-2-1-10-1-11-3-3-5-3"/><path fill="#e9eff8" d="M22 203q11-31 20-45 5-9 12-10 3-1 7 1l8 4q17 9 15 33l-4 17q-2 7-5 11l-3-1-3-2-3-2h-5v-4q2-5 0-4l-3 6-1 8q-1 11 3 26 5 15 13 30 19 34 48 51l23 9 28 9q2 2 2 7t-3 11q-5 15-11 17-3 2-13-1l-19-5-21-13-3-2 2 3 11 8 13 9q10 7 15 13t5 13q0 10-7 20t-12 10q-7-1-22-15-14-14-23-29-2-3-3-2l1 3q10 19 23 32 15 15 24 14-2 9-7 13t-13 4q-8 0-24-14-15-14-20-25l-2-3 1 4q4 12 16 25 13 13 25 16l-7 3-6 1q-17 1-34-19-15-18-27-51-12-30-19-66-6-35-5-64 1-20 13-54"/><path fill="#c9cfd7" d="M49 237q-5-22 1-42 1-4 7-7t12-3q7 0 10 3 4 4 2 12l-6 14-3-1-3-2-3-2h-5v-4q2-5 0-4l-3 6-1 8q-1 11 3 26 5 15 13 30 19 34 48 51-12-3-26-16-16-13-28-30-13-20-18-39"/><path fill="#0d131a" d="M174 125h1q1 2-1 5l-2 2h-1l-2-1-1-2v-1q3 0 6-3"/><path fill="#fff" d="M174 127l-1 2-2 1-2-1q3 0 5-2"/><path fill="#0d131a" d="M185 123h1l1 4-1 4h-4q-2-1-1-2 2-1 4-6"/><path fill="#fff" d="M185 125v4h-3l3-4"/><path fill="#c9cfd7" d="M113 100q5-4 16-2 10 2 15 8-4-3-11-2-7 0-12 4l-6 7q-1 2 4-2-2 6-2 14 1 10 4 15l-9-11q-5-7-5-10v-10q2-8 6-11"/></svg>